<?xml version="1.0" encoding="UTF-8" standalone="no"?>
<svg
   xmlns:dc="http://purl.org/dc/elements/1.1/"
   xmlns:cc="http://creativecommons.org/ns#"
   xmlns:rdf="http://www.w3.org/1999/02/22-rdf-syntax-ns#"
   xmlns:svg="http://www.w3.org/2000/svg"
   xmlns="http://www.w3.org/2000/svg"
   xmlns:sodipodi="http://sodipodi.sourceforge.net/DTD/sodipodi-0.dtd"
   xmlns:inkscape="http://www.inkscape.org/namespaces/inkscape"
   width="12mm"
   height="12mm"
   viewBox="0 0 12 12"
   version="1.1"
   id="svg3506"
   inkscape:version="0.92.5 (2060ec1f9f, 2020-04-08)"
   sodipodi:docname="DirectionalMotion2D.svg">
  <defs
     id="defs3500" />
  <sodipodi:namedview
     id="base"
     pagecolor="#ffffff"
     bordercolor="#666666"
     borderopacity="1.0"
     inkscape:pageopacity="0.0"
     inkscape:pageshadow="2"
     inkscape:zoom="0.9899495"
     inkscape:cx="162.09565"
     inkscape:cy="63.369677"
     inkscape:document-units="mm"
     inkscape:current-layer="g988"
     showgrid="false"
     inkscape:window-width="1366"
     inkscape:window-height="710"
     inkscape:window-x="0"
     inkscape:window-y="30"
     inkscape:window-maximized="1"
     inkscape:pagecheckerboard="true"
     inkscape:document-rotation="0" />
  <metadata
     id="metadata3503">
    <rdf:RDF>
      <cc:Work
         rdf:about="">
        <dc:format>image/svg+xml</dc:format>
        <dc:type
           rdf:resource="http://purl.org/dc/dcmitype/StillImage" />
        <dc:title />
      </cc:Work>
    </rdf:RDF>
  </metadata>
  <g
     inkscape:label="Layer 1"
     inkscape:groupmode="layer"
     id="layer1"
     transform="translate(0,-285)">
    <g
       id="g984"
       transform="matrix(0.97851746,0,0,0.97851746,0.12990369,6.2544836)">
      <g
         id="g988"
         transform="matrix(2.0556281,0,0,2.0556281,0.569615,-307.33838)"
         style="fill:#ffffff;fill-opacity:0.85098">
        <path
           id="path843"
           style="color:#000000;font-style:normal;font-variant:normal;font-weight:normal;font-stretch:normal;font-size:medium;line-height:normal;font-family:sans-serif;font-variant-ligatures:normal;font-variant-position:normal;font-variant-caps:normal;font-variant-numeric:normal;font-variant-alternates:normal;font-variant-east-asian:normal;font-feature-settings:normal;font-variation-settings:normal;text-indent:0;text-align:start;text-decoration:none;text-decoration-line:none;text-decoration-style:solid;text-decoration-color:#000000;letter-spacing:normal;word-spacing:normal;text-transform:none;writing-mode:lr-tb;direction:ltr;text-orientation:mixed;dominant-baseline:auto;baseline-shift:baseline;text-anchor:start;white-space:normal;shape-padding:0;shape-margin:0;inline-size:0;clip-rule:nonzero;display:inline;overflow:visible;visibility:visible;opacity:1;isolation:auto;mix-blend-mode:normal;color-interpolation:sRGB;color-interpolation-filters:linearRGB;solid-color:#000000;solid-opacity:1;vector-effect:none;fill:#ffffff;fill-opacity:1;fill-rule:nonzero;stroke:none;stroke-width:1.05831;stroke-linecap:round;stroke-linejoin:round;stroke-miterlimit:4;stroke-dasharray:none;stroke-dashoffset:0;stroke-opacity:1;color-rendering:auto;image-rendering:auto;shape-rendering:auto;text-rendering:auto;enable-background:accumulate;stop-color:#000000;stop-opacity:1"
           d="m 2.3717599,288.14439 c -1.41504388,0 -2.56716978,1.15211 -2.56716978,2.56716 0,1.41505 1.1521259,2.56718 2.56716978,2.56718 1.4150432,0 2.5671696,-1.15213 2.5671696,-2.56718 0,-1.41505 -1.1521264,-2.56716 -2.5671696,-2.56716 z m 0,0.47118 c 1.1604291,0 2.0959867,0.93554 2.0959867,2.09598 0,1.16041 -0.9355576,2.096 -2.0959867,2.096 -1.1604298,0 -2.09598734,-0.93559 -2.09598734,-2.096 0,-1.16044 0.93555754,-2.09598 2.09598734,-2.09598 z m -0.00163,0.0703 a 0.17830481,0.17830481 0 0 0 -0.1764554,0.17834 0.17830481,0.17830481 0 0 0 0.1783587,0.17839 0.17830481,0.17830481 0 0 0 0.1783586,-0.17839 0.17830481,0.17830481 0 0 0 -0.1783586,-0.17834 0.17830481,0.17830481 0 0 0 -0.00191,0 z m -1.84911244,1.84912 a 0.17830481,0.17830481 0 0 0 -0.17645559,0.17806 0.17830481,0.17830481 0 0 0 0.17835879,0.17836 0.17830481,0.17830481 0 0 0 0.17835879,-0.17836 0.17830481,0.17830481 0 0 0 -0.17835879,-0.17806 0.17830481,0.17830481 0 0 0 -0.001906,0 z m 3.69822494,0 a 0.17830481,0.17830481 0 0 0 -0.1764554,0.17806 0.17830481,0.17830481 0 0 0 0.1780867,0.17836 0.17830481,0.17830481 0 0 0 0.1783589,-0.17836 0.17830481,0.17830481 0 0 0 -0.1783589,-0.17806 0.17830481,0.17830481 0 0 0 -0.00163,0 z m -1.8491126,1.84888 a 0.17830481,0.17830481 0 0 0 -0.1764554,0.17834 0.17830481,0.17830481 0 0 0 0.1783586,0.17837 0.17830481,0.17830481 0 0 0 0.1783587,-0.17837 0.17830481,0.17830481 0 0 0 -0.1783587,-0.17834 0.17830481,0.17830481 0 0 0 -0.00191,0 z" />
        <g
           id="g851"
           transform="matrix(0.94720133,0,0,0.94720133,0.33223902,15.152174)">
          <path
             id="path846"
             style="fill:#ffffff;fill-opacity:1;stroke:none;stroke-width:0.438224;stroke-linecap:round;stroke-linejoin:round;stroke-miterlimit:4;stroke-dasharray:none;stroke-opacity:1"
             inkscape:transform-center-x="1.7392575"
             inkscape:transform-center-y="1.7392354"
             d="m 0.6082505,292.55657 1.1929041,-1.97123 0.7783343,0.77834 z"
             sodipodi:nodetypes="cccc" />
          <path
             id="path847"
             style="fill:#8da5f3;fill-opacity:1;stroke:none;stroke-width:0.438224;stroke-linecap:round;stroke-linejoin:round;stroke-miterlimit:4;stroke-dasharray:none;stroke-opacity:1"
             inkscape:transform-center-x="-1.7392591"
             inkscape:transform-center-y="-1.7392297"
             d="m 3.772393,289.39245 -1.1929041,1.97123 -0.7783343,-0.77834 z"
             sodipodi:nodetypes="cccc" />
          <path
             id="circle845"
             style="fill:#ffffff;fill-opacity:1;stroke:none;stroke-width:0.114658;stroke-linecap:round;stroke-linejoin:round;stroke-miterlimit:4;stroke-dasharray:none;stroke-opacity:1"
             d="m 2.7231865,290.79771 a 0.5674541,0.5674541 0 0 1 -0.4012493,0.69499 0.5674541,0.5674541 0 0 1 -0.6949883,-0.40126 0.5674541,0.5674541 0 0 1 0.4012555,-0.69498 0.5674541,0.5674541 0 0 1 0.6949821,0.40125 z" />
        </g>
        <path
           id="path1491"
           style="fill:#8da5f3;fill-opacity:1;stroke:none;stroke-width:0.139206px;stroke-linecap:butt;stroke-linejoin:miter;stroke-opacity:1"
           d="m 2.3774384,288.14439 c -0.1422968,0 -0.2810016,0.0146 -0.4170766,0.0369 l 0.099237,0.46059 c 0.1038595,-0.0159 0.2094772,-0.0263 0.3178376,-0.0263 1.160429,0 2.095987,0.93555 2.095987,2.09599 0,0.96453 -0.6472127,1.77169 -1.5318188,2.01741 l 0.099238,0.45976 c 1.094207,-0.29371 1.9037623,-1.29184 1.9037623,-2.47717 0,-1.41504 -1.1521263,-2.56717 -2.5671694,-2.56717 z m -0.00163,0.54161 a 0.17830481,0.17830481 0 0 0 -0.1764555,0.17834 0.17830481,0.17830481 0 0 0 0.1783588,0.17836 0.17830481,0.17830481 0 0 0 0.1783586,-0.17836 0.17830481,0.17830481 0 0 0 -0.1783586,-0.17834 0.17830481,0.17830481 0 0 0 -0.00191,0 z m 1.8491126,1.84909 a 0.17830481,0.17830481 0 0 0 -0.1764554,0.17809 0.17830481,0.17830481 0 0 0 0.1780868,0.17836 0.17830481,0.17830481 0 0 0 0.1783587,-0.17836 0.17830481,0.17830481 0 0 0 -0.1783587,-0.17809 0.17830481,0.17830481 0 0 0 -0.00163,0 z" />
        <path
           style="fill:#8da5f3;fill-opacity:1;stroke:none;stroke-width:0.224174;stroke-linecap:round;stroke-linejoin:miter;stroke-miterlimit:4;stroke-dasharray:none;stroke-opacity:1"
           d="m 3.5000354,291.30966 0.4831529,0.83718 -1.7391565,1.00418 0.2080548,0.36044 -1.79878025,10e-6 0.89951435,-1.55784 0.2080518,0.3602 z"
           id="path1472"
           inkscape:connector-curvature="0" />
        <path
           style="fill:#ffffff;fill-opacity:1;stroke:none;stroke-width:0.224174;stroke-linecap:round;stroke-linejoin:miter;stroke-miterlimit:4;stroke-dasharray:none;stroke-opacity:1"
           d="m 2.2440318,293.15102 0.4834338,0.837 1.7392094,-1.00407 0.2081308,0.3604 0.8993912,-1.55779 -1.7988746,10e-5 0.2079189,0.36028 z"
           id="rect829"
           inkscape:connector-curvature="0" />
      </g>
    </g>
    <g
       id="g912"
       transform="matrix(1.0697134,0,0,1.0697134,-0.37598302,-20.296553)">
      <g
         id="g928"
         transform="translate(0.05712841,-0.82552129)">
        <g
           id="g980"
           transform="rotate(90,5.9472119,291.9682)" />
      </g>
    </g>
    <g
       transform="rotate(90,6.8440076,291.1488)"
       id="g918" />
  </g>
</svg>
