<?xml version="1.0" encoding="UTF-8" standalone="no"?>
<svg
   xmlns:dc="http://purl.org/dc/elements/1.1/"
   xmlns:cc="http://creativecommons.org/ns#"
   xmlns:rdf="http://www.w3.org/1999/02/22-rdf-syntax-ns#"
   xmlns:svg="http://www.w3.org/2000/svg"
   xmlns="http://www.w3.org/2000/svg"
   xmlns:sodipodi="http://sodipodi.sourceforge.net/DTD/sodipodi-0.dtd"
   xmlns:inkscape="http://www.inkscape.org/namespaces/inkscape"
   width="12mm"
   height="12mm"
   viewBox="0 0 12 12"
   version="1.1"
   id="svg3506"
   inkscape:version="1.0.2-2 (e86c870879, 2021-01-15)"
   sodipodi:docname="EntityBody2D.svg">
  <defs
     id="defs3500" />
  <sodipodi:namedview
     id="base"
     pagecolor="#ffffff"
     bordercolor="#666666"
     borderopacity="1.0"
     inkscape:pageopacity="0.0"
     inkscape:pageshadow="2"
     inkscape:zoom="7.9195959"
     inkscape:cx="27.040003"
     inkscape:cy="25.513899"
     inkscape:document-units="mm"
     inkscape:current-layer="layer1"
     showgrid="false"
     inkscape:window-width="1440"
     inkscape:window-height="837"
     inkscape:window-x="-8"
     inkscape:window-y="32"
     inkscape:window-maximized="1"
     inkscape:document-rotation="0" />
  <metadata
     id="metadata3503">
    <rdf:RDF>
      <cc:Work
         rdf:about="">
        <dc:format>image/svg+xml</dc:format>
        <dc:type
           rdf:resource="http://purl.org/dc/dcmitype/StillImage" />
        <dc:title />
      </cc:Work>
    </rdf:RDF>
  </metadata>
  <g
     inkscape:label="Layer 1"
     inkscape:groupmode="layer"
     id="layer1"
     transform="translate(0,-285)">
    <circle
       style="fill:#8da5f3;fill-opacity:1;stroke:none;stroke-width:0.4563;stroke-linecap:round;stroke-linejoin:round;stroke-miterlimit:4;stroke-dasharray:none;stroke-opacity:1;paint-order:normal"
       id="path1416"
       cy="288.37512"
       cx="3.271425"
       r="2.5915408" />
    <path
       id="path1486"
       style="fill:#8da5f3;fill-opacity:1;stroke:none;stroke-width:0.4563;stroke-linecap:round;stroke-linejoin:round;stroke-miterlimit:4;stroke-dasharray:none;stroke-opacity:1;paint-order:normal"
       d="m 3.2713124,290.98125 c -1.7512015,0 -3.1707104,2.05819 -3.17070728,3.80937 1.96e-6,1.75119 1.41950928,1.23935 3.17070728,1.23935 1.1429671,0 2.1418,0.21427 2.6997624,-0.1211 a 3.5106633,3.5106633 0 0 1 -2.015451,-3.17598 3.5106633,3.5106633 0 0 1 0.3407142,-1.50895 c -0.3218706,-0.15275 -0.6658771,-0.24269 -1.0250256,-0.24269 z" />
    <path
       id="path843"
       style="color:#000000;font-style:normal;font-variant:normal;font-weight:normal;font-stretch:normal;font-size:medium;line-height:normal;font-family:sans-serif;font-variant-ligatures:normal;font-variant-position:normal;font-variant-caps:normal;font-variant-numeric:normal;font-variant-alternates:normal;font-variant-east-asian:normal;font-feature-settings:normal;font-variation-settings:normal;text-indent:0;text-align:start;text-decoration:none;text-decoration-line:none;text-decoration-style:solid;text-decoration-color:#000000;letter-spacing:normal;word-spacing:normal;text-transform:none;writing-mode:lr-tb;direction:ltr;text-orientation:mixed;dominant-baseline:auto;baseline-shift:baseline;text-anchor:start;white-space:normal;shape-padding:0;shape-margin:0;inline-size:0;clip-rule:nonzero;display:inline;overflow:visible;visibility:visible;isolation:auto;mix-blend-mode:normal;color-interpolation:sRGB;color-interpolation-filters:linearRGB;solid-color:#000000;solid-opacity:1;vector-effect:none;fill:#ffffff;fill-opacity:1;fill-rule:nonzero;stroke:none;stroke-width:1.5209;stroke-linecap:round;stroke-linejoin:round;stroke-miterlimit:4;stroke-dasharray:none;stroke-dashoffset:0;stroke-opacity:1;color-rendering:auto;image-rendering:auto;shape-rendering:auto;text-rendering:auto;enable-background:accumulate;stop-color:#000000"
       d="m 7.2884485,288.59499 c -2.0335595,0 -3.6892798,1.65568 -3.6892798,3.68927 0,2.03358 1.6557203,3.68929 3.6892798,3.68929 2.0335594,0 3.6892805,-1.65571 3.6892805,-3.68929 0,-2.03359 -1.6557211,-3.68927 -3.6892805,-3.68927 z m 0,0.67715 c 1.6676524,0 3.0121435,1.34445 3.0121435,3.01212 0,1.66763 -1.3444911,3.01217 -3.0121435,3.01217 -1.6676539,0 -3.0121435,-1.34454 -3.0121435,-3.01217 0,-1.66767 1.3444896,-3.01212 3.0121435,-3.01212 z m -0.00234,0.101 a 0.25624186,0.25624186 0 0 0 -0.2535841,0.25629 0.25624186,0.25624186 0 0 0 0.2563192,0.25639 0.25624186,0.25624186 0 0 0 0.2563192,-0.25639 0.25624186,0.25624186 0 0 0 -0.2563192,-0.25629 0.25624186,0.25624186 0 0 0 -0.00275,0 z m -2.6573599,2.65738 a 0.25624186,0.25624186 0 0 0 -0.2535841,0.25589 0.25624186,0.25624186 0 0 0 0.2563194,0.25631 0.25624186,0.25624186 0 0 0 0.2563194,-0.25631 0.25624186,0.25624186 0 0 0 -0.2563194,-0.25589 0.25624186,0.25624186 0 0 0 -0.00275,0 z m 5.3147201,0 a 0.25624186,0.25624186 0 0 0 -0.2535845,0.25589 0.25624186,0.25624186 0 0 0 0.2559294,0.25631 0.25624186,0.25624186 0 0 0 0.2563184,-0.25631 0.25624186,0.25624186 0 0 0 -0.2563184,-0.25589 0.25624186,0.25624186 0 0 0 -0.00222,0 z m -2.6573601,2.65706 a 0.25624186,0.25624186 0 0 0 -0.2535841,0.25629 0.25624186,0.25624186 0 0 0 0.256319,0.25635 0.25624186,0.25624186 0 0 0 0.2563193,-0.25635 0.25624186,0.25624186 0 0 0 -0.2563193,-0.25629 0.25624186,0.25624186 0 0 0 -0.00275,0 z" />
    <g
       id="g851"
       transform="matrix(1.3612231,0,0,1.3612231,4.3574529,-103.72215)"
       style="fill:#ffffff;fill-opacity:0.85098">
      <path
         id="path846"
         style="fill:#ffffff;fill-opacity:1;stroke:none;stroke-width:0.438224;stroke-linecap:round;stroke-linejoin:round;stroke-miterlimit:4;stroke-dasharray:none;stroke-opacity:1"
         inkscape:transform-center-x="1.7392575"
         inkscape:transform-center-y="1.7392354"
         d="m 0.6082505,292.55657 1.1929041,-1.97123 0.7783343,0.77834 z"
         sodipodi:nodetypes="cccc" />
      <path
         id="path847"
         style="fill:#8da5f3;fill-opacity:1;stroke:none;stroke-width:0.438224;stroke-linecap:round;stroke-linejoin:round;stroke-miterlimit:4;stroke-dasharray:none;stroke-opacity:1"
         inkscape:transform-center-x="-1.7392591"
         inkscape:transform-center-y="-1.7392297"
         d="m 3.772393,289.39245 -1.1929041,1.97123 -0.7783343,-0.77834 z"
         sodipodi:nodetypes="cccc" />
      <path
         id="circle845"
         style="fill:#ffffff;fill-opacity:1;stroke:none;stroke-width:0.114658;stroke-linecap:round;stroke-linejoin:round;stroke-miterlimit:4;stroke-dasharray:none;stroke-opacity:1"
         d="m 2.7231865,290.79771 a 0.5674541,0.5674541 0 0 1 -0.4012493,0.69499 0.5674541,0.5674541 0 0 1 -0.6949883,-0.40126 0.5674541,0.5674541 0 0 1 0.4012555,-0.69498 0.5674541,0.5674541 0 0 1 0.6949821,0.40125 z" />
    </g>
    <path
       id="path1491"
       style="fill:#8da5f3;fill-opacity:1;stroke:none;stroke-width:0.200052px;stroke-linecap:butt;stroke-linejoin:miter;stroke-opacity:1"
       d="m 7.296609,288.59499 c -0.2044946,0 -0.4038273,0.021 -0.5993807,0.053 l 0.1426135,0.66191 c 0.1492566,-0.0228 0.3010397,-0.0377 0.4567644,-0.0377 1.6676524,0 3.0121438,1.34446 3.0121438,3.01211 0,1.38615 -0.9301102,2.5461 -2.2013777,2.89923 l 0.1426151,0.66072 c 1.5724842,-0.4221 2.7358976,-1.85649 2.7358976,-3.55995 0,-2.03355 -1.6557213,-3.68926 -3.6892801,-3.68926 z m -0.00234,0.77836 a 0.25624186,0.25624186 0 0 0 -0.2535842,0.2563 0.25624186,0.25624186 0 0 0 0.2563194,0.2563 0.25624186,0.25624186 0 0 0 0.2563192,-0.2563 0.25624186,0.25624186 0 0 0 -0.2563192,-0.2563 0.25624186,0.25624186 0 0 0 -0.00275,0 z m 2.6573627,2.65733 a 0.25624186,0.25624186 0 0 0 -0.2535868,0.25593 0.25624186,0.25624186 0 0 0 0.2559287,0.2563 0.25624186,0.25624186 0 0 0 0.2563194,-0.2563 0.25624186,0.25624186 0 0 0 -0.2563194,-0.25593 0.25624186,0.25624186 0 0 0 -0.00222,0 z" />
    <path
       style="fill:#8da5f3;fill-opacity:1;stroke:none;stroke-width:0.322161;stroke-linecap:round;stroke-linejoin:miter;stroke-miterlimit:4;stroke-dasharray:none;stroke-opacity:1"
       d="m 8.9098936,293.1438 0.6943395,1.20311 -2.4993426,1.44312 0.2989956,0.51799 H 4.8188587 l 1.2926922,-2.23877 0.2989912,0.51765 z"
       id="path1472"
       inkscape:connector-curvature="0" />
    <path
       style="fill:#ffffff;fill-opacity:1;stroke:none;stroke-width:0.322161;stroke-linecap:round;stroke-linejoin:miter;stroke-miterlimit:4;stroke-dasharray:none;stroke-opacity:1"
       d="m 7.1048905,295.79003 0.6947427,1.20285 2.4994198,-1.44296 0.299104,0.51795 1.292516,-2.23871 -2.5851652,1.5e-4 0.2988009,0.51775 z"
       id="rect829"
       inkscape:connector-curvature="0" />
  </g>
</svg>
