<?xml version="1.0" encoding="UTF-8" standalone="no"?>
<!-- Created with Inkscape (http://www.inkscape.org/) -->

<svg
   xmlns:dc="http://purl.org/dc/elements/1.1/"
   xmlns:cc="http://creativecommons.org/ns#"
   xmlns:rdf="http://www.w3.org/1999/02/22-rdf-syntax-ns#"
   xmlns:svg="http://www.w3.org/2000/svg"
   xmlns="http://www.w3.org/2000/svg"
   xmlns:sodipodi="http://sodipodi.sourceforge.net/DTD/sodipodi-0.dtd"
   xmlns:inkscape="http://www.inkscape.org/namespaces/inkscape"
   width="12mm"
   height="12mm"
   viewBox="0 0 12 12"
   version="1.1"
   id="svg3506"
   inkscape:version="0.92.4 (5da689c313, 2019-01-14)"
   sodipodi:docname="KnockBack2D.svg">
  <defs
     id="defs3500" />
  <sodipodi:namedview
     id="base"
     pagecolor="#ffffff"
     bordercolor="#666666"
     borderopacity="1.0"
     inkscape:pageopacity="0.0"
     inkscape:pageshadow="2"
     inkscape:zoom="6.5820428"
     inkscape:cx="36.771691"
     inkscape:cy="20.009401"
     inkscape:document-units="mm"
     inkscape:current-layer="g882"
     showgrid="false"
     inkscape:window-width="1440"
     inkscape:window-height="837"
     inkscape:window-x="-8"
     inkscape:window-y="32"
     inkscape:window-maximized="1"
     showguides="true"
     inkscape:guide-bbox="true" />
  <metadata
     id="metadata3503">
    <rdf:RDF>
      <cc:Work
         rdf:about="">
        <dc:format>image/svg+xml</dc:format>
        <dc:type
           rdf:resource="http://purl.org/dc/dcmitype/StillImage" />
        <dc:title />
      </cc:Work>
    </rdf:RDF>
  </metadata>
  <g
     inkscape:label="Layer 1"
     inkscape:groupmode="layer"
     id="layer1"
     transform="translate(0,-285)">
    <g
       id="g882"
       transform="translate(0.66385881,-0.7296564)">
      <g
         transform="translate(-13.824015,-0.51205459)"
         id="layer1-2"
         inkscape:label="Layer 1">
        <path
           inkscape:connector-curvature="0"
           id="rect4051"
           d="m 1.9147707,286.22731 c -0.9089986,0 -1.64054497,0.73223 -1.64054497,1.64123 v 6.16897 c 0,0.909 0.73154637,1.64122 1.64054497,1.64122 h 1.6405456 v -1.00436 -0.43788 c -4e-7,-0.89689 0.7220087,-1.61889 1.6188876,-1.61889 0.8968795,0 1.6188878,0.722 1.6188881,1.61889 v 0.43788 1.00436 h 1.2913202 c 0.9089993,0 1.6405452,-0.73222 1.6405452,-1.64122 v -1.46526 h 0.021657 0.4378866 c 0.896876,0 1.618887,-0.72201 1.618887,-1.61889 0,-0.89688 -0.722011,-1.61889 -1.618887,-1.61889 H 9.7466147 9.7249574 v -1.46593 c 0,-0.909 -0.7315459,-1.64123 -1.6405452,-1.64123 z"
           style="opacity:1;fill:#ffffff;fill-opacity:0.85098039;stroke:none;stroke-width:3.31511116;stroke-linecap:round;stroke-linejoin:round;stroke-miterlimit:4;stroke-dasharray:none;stroke-opacity:1;paint-order:normal" />
      </g>
      <g
         id="g839"
         transform="matrix(-0.6486471,-1.1234898,-1.1234898,0.6486471,334.73601,108.88219)"
         style="stroke:#ff8025;stroke-width:0.92500217;stroke-miterlimit:4;stroke-dasharray:none;stroke-opacity:1">
        <path
           style="opacity:1;fill:none;fill-opacity:1;stroke:#8da5f3;stroke-width:3.49607114;stroke-linecap:round;stroke-linejoin:miter;stroke-miterlimit:4;stroke-dasharray:none;stroke-opacity:1"
           d="m 6.1777344,8.0839844 7.0996096,12.2988276 1.642578,-2.845703 13.730469,7.927735 3.816406,-6.607422 -13.730469,-7.927734 1.642578,-2.8457036 z"
           transform="matrix(-0.13229167,-0.22913589,-0.22913589,0.13229167,12.34643,292.23775)"
           id="rect833"
           inkscape:connector-curvature="0" />
      </g>
      <path
         style="opacity:1;fill:#8da5f3;fill-opacity:1;stroke:none;stroke-width:0.60747874;stroke-linecap:round;stroke-linejoin:miter;stroke-miterlimit:4;stroke-dasharray:none;stroke-opacity:1"
         d="m 3.5225549,290.58975 -1.309282,2.26862 4.7128794,2.72114 -0.5638024,0.97677 h 4.8744451 l -2.4375581,-4.22149 -0.5638024,0.9761 z"
         id="rect829"
         inkscape:connector-curvature="0" />
    </g>
  </g>
</svg>
