<?xml version="1.0" encoding="UTF-8" standalone="no"?>
<svg
   xmlns:dc="http://purl.org/dc/elements/1.1/"
   xmlns:cc="http://creativecommons.org/ns#"
   xmlns:rdf="http://www.w3.org/1999/02/22-rdf-syntax-ns#"
   xmlns:svg="http://www.w3.org/2000/svg"
   xmlns="http://www.w3.org/2000/svg"
   xmlns:sodipodi="http://sodipodi.sourceforge.net/DTD/sodipodi-0.dtd"
   xmlns:inkscape="http://www.inkscape.org/namespaces/inkscape"
   width="12mm"
   height="12mm"
   viewBox="0 0 12 12"
   version="1.1"
   id="svg3506"
   inkscape:version="1.0.2-2 (e86c870879, 2021-01-15)"
   sodipodi:docname="PhysicsMotion2D.svg">
  <defs
     id="defs3500" />
  <sodipodi:namedview
     id="base"
     pagecolor="#000000"
     bordercolor="#666666"
     borderopacity="1.0"
     inkscape:pageopacity="0.13333333"
     inkscape:pageshadow="2"
     inkscape:zoom="3.959798"
     inkscape:cx="62.236896"
     inkscape:cy="38.985503"
     inkscape:document-units="mm"
     inkscape:current-layer="layer1"
     showgrid="false"
     inkscape:window-width="1440"
     inkscape:window-height="837"
     inkscape:window-x="-8"
     inkscape:window-y="32"
     inkscape:window-maximized="1"
     inkscape:pagecheckerboard="true"
     inkscape:document-rotation="0" />
  <metadata
     id="metadata3503">
    <rdf:RDF>
      <cc:Work
         rdf:about="">
        <dc:format>image/svg+xml</dc:format>
        <dc:type
           rdf:resource="http://purl.org/dc/dcmitype/StillImage" />
        <dc:title />
      </cc:Work>
    </rdf:RDF>
  </metadata>
  <g
     inkscape:label="Layer 1"
     inkscape:groupmode="layer"
     id="layer1"
     transform="translate(0,-285)">
    <path
       style="opacity:1;fill:#ffffff;fill-opacity:0.85098;stroke:none;stroke-width:3.31511;stroke-linecap:round;stroke-linejoin:round;stroke-miterlimit:4;stroke-dasharray:none;stroke-opacity:1;paint-order:normal"
       d="m -10.112358,286.22731 c -0.908999,0 -1.640545,0.73223 -1.640545,1.64123 v 6.16897 c 0,0.909 0.731546,1.64122 1.640545,1.64122 h 1.6405456 v -1.00436 -0.43788 c -4e-7,-0.89689 0.7220087,-1.61889 1.6188876,-1.61889 0.8968795,0 1.6188878,0.722 1.6188881,1.61889 v 0.43788 1.00436 h 1.2913202 c 0.9089993,0 1.6405452,-0.73222 1.6405452,-1.64122 v -1.46526 h 0.021657 0.4378866 c 0.89687596,0 1.61888696,-0.72201 1.61888696,-1.61889 0,-0.89688 -0.722011,-1.61889 -1.61888696,-1.61889 h -0.4378863 -0.021657 v -1.46593 c 0,-0.909 -0.7315459,-1.64123 -1.6405452,-1.64123 z"
       id="rect4051"
       inkscape:connector-curvature="0" />
    <path
       id="rect835"
       style="color:#000000;font-style:normal;font-variant:normal;font-weight:normal;font-stretch:normal;font-size:medium;line-height:normal;font-family:sans-serif;font-variant-ligatures:normal;font-variant-position:normal;font-variant-caps:normal;font-variant-numeric:normal;font-variant-alternates:normal;font-variant-east-asian:normal;font-feature-settings:normal;font-variation-settings:normal;text-indent:0;text-align:start;text-decoration:none;text-decoration-line:none;text-decoration-style:solid;text-decoration-color:#000000;letter-spacing:normal;word-spacing:normal;text-transform:none;writing-mode:lr-tb;direction:ltr;text-orientation:mixed;dominant-baseline:auto;baseline-shift:baseline;text-anchor:start;white-space:normal;shape-padding:0;shape-margin:0;inline-size:0;clip-rule:nonzero;display:inline;overflow:visible;visibility:visible;opacity:1;isolation:auto;mix-blend-mode:normal;color-interpolation:sRGB;color-interpolation-filters:linearRGB;solid-color:#000000;solid-opacity:1;vector-effect:none;fill:#ffffff;fill-opacity:1;fill-rule:nonzero;stroke:none;stroke-width:3.77953;stroke-linecap:round;stroke-linejoin:round;stroke-miterlimit:4;stroke-dasharray:none;stroke-dashoffset:0;stroke-opacity:1;color-rendering:auto;image-rendering:auto;shape-rendering:auto;text-rendering:auto;enable-background:accumulate;stop-color:#000000;stop-opacity:1"
       d="M 35.632812 7.7148438 A 1.3486488 1.3486488 0 0 0 35.535156 7.7167969 A 1.3486488 1.3486488 0 0 0 35.476562 7.7207031 A 1.3486488 1.3486488 0 0 0 34.613281 8.1503906 A 1.3486488 1.3486488 0 0 0 34.6875 10.054688 L 36.550781 11.773438 L 32.414062 11.773438 C 32.414062 10.224512 31.121209 8.9316406 29.572266 8.9316406 L 10.097656 8.9316406 C 8.5487136 8.9316406 7.2558594 10.224512 7.2558594 11.773438 L 7.2558594 14.46875 L 3.1816406 14.46875 A 1.5174803 1.5174803 0 0 0 1.6679688 15.988281 A 1.5174803 1.5174803 0 0 0 3.1816406 17.509766 L 7.2558594 17.509766 L 7.2558594 19.902344 L 1.6601562 19.902344 A 1.5174803 1.5174803 0 0 0 0.140625 21.414062 A 1.5174803 1.5174803 0 0 0 1.6601562 22.935547 L 7.2558594 22.935547 L 7.2558594 25.835938 L 3.1816406 25.835938 A 1.5174803 1.5174803 0 0 0 1.6679688 27.357422 A 1.5174803 1.5174803 0 0 0 3.1816406 28.871094 L 7.2558594 28.871094 L 7.2558594 30.65625 C 7.2558594 32.205176 8.5487136 33.498047 10.097656 33.498047 L 29.572266 33.498047 C 31.121209 33.498047 32.414062 32.205176 32.414062 30.65625 L 32.414062 14.476562 L 36.128906 14.476562 L 34.472656 15.796875 A 1.3486488 1.3486488 0 0 0 34.259766 17.695312 A 1.3486488 1.3486488 0 0 0 36.15625 17.908203 L 40.773438 14.224609 A 1.3486488 1.3486488 0 0 0 40.904297 14.117188 A 1.3487837 1.3487837 0 0 0 40.957031 14.066406 A 1.3486488 1.3486488 0 0 0 40.972656 14.048828 A 1.3486488 1.3486488 0 0 0 41.136719 13.835938 A 1.3486488 1.3486488 0 0 0 41.148438 13.816406 A 1.3487837 1.3487837 0 0 0 41.185547 13.751953 A 1.3486488 1.3486488 0 0 0 41.197266 13.730469 A 1.3487837 1.3487837 0 0 0 41.210938 13.697266 A 1.3486488 1.3486488 0 0 0 41.236328 13.640625 A 1.3487837 1.3487837 0 0 0 41.263672 13.572266 A 1.3486488 1.3486488 0 0 0 41.271484 13.548828 A 1.3487837 1.3487837 0 0 0 41.292969 13.478516 A 1.3486488 1.3486488 0 0 0 41.298828 13.455078 A 1.3487837 1.3487837 0 0 0 41.314453 13.382812 A 1.3487837 1.3487837 0 0 0 41.337891 13.189453 A 1.3487837 1.3487837 0 0 0 41.335938 13.027344 A 1.3487837 1.3487837 0 0 0 41.251953 12.646484 A 1.3487837 1.3487837 0 0 0 41.216797 12.5625 A 1.3487837 1.3487837 0 0 0 41.214844 12.556641 A 1.3486488 1.3486488 0 0 0 41.212891 12.552734 A 1.3487837 1.3487837 0 0 0 41.169922 12.470703 A 1.3487837 1.3487837 0 0 0 41.119141 12.386719 A 1.3487837 1.3487837 0 0 0 41.066406 12.310547 A 1.3487837 1.3487837 0 0 0 41.064453 12.306641 A 1.3486488 1.3486488 0 0 0 41.029297 12.261719 A 1.3487837 1.3487837 0 0 0 41.001953 12.230469 A 1.3486488 1.3486488 0 0 0 40.996094 12.224609 A 1.3487837 1.3487837 0 0 0 40.933594 12.160156 A 1.3486488 1.3486488 0 0 0 40.910156 12.136719 L 40.863281 12.09375 L 36.517578 8.0761719 A 1.3486488 1.3486488 0 0 0 35.632812 7.7148438 z M 10.291016 11.966797 L 29.380859 11.966797 L 29.380859 30.464844 L 10.291016 30.464844 L 10.291016 11.966797 z M 39.634766 23.902344 A 1.3486488 1.3486488 0 0 0 39.537109 23.904297 A 1.3486488 1.3486488 0 0 0 39.470703 23.910156 A 1.3486488 1.3486488 0 0 0 38.615234 24.337891 A 1.3486488 1.3486488 0 0 0 38.689453 26.242188 L 40.548828 27.962891 L 34.753906 27.962891 A 1.3486488 1.3486488 0 0 0 33.402344 29.314453 A 1.3486488 1.3486488 0 0 0 34.753906 30.664062 L 40.128906 30.664062 L 38.474609 31.986328 A 1.3486488 1.3486488 0 0 0 38.253906 33.882812 A 1.3486488 1.3486488 0 0 0 40.150391 34.097656 L 44.806641 30.388672 A 1.3486488 1.3486488 0 0 0 45.339844 29.314453 A 1.3486488 1.3486488 0 0 0 44.839844 28.265625 L 40.519531 24.263672 A 1.3486488 1.3486488 0 0 0 39.634766 23.902344 z M 3.6621094 37.234375 A 1.5174803 1.5174803 0 0 0 2.140625 38.748047 A 1.5174803 1.5174803 0 0 0 3.6621094 40.267578 L 42.142578 40.267578 A 1.5174803 1.5174803 0 0 0 43.664062 38.748047 A 1.5174803 1.5174803 0 0 0 42.142578 37.234375 L 3.6621094 37.234375 z "
       transform="matrix(0.26458333,0,0,0.26458333,0,285)" />
    <path
       id="path2664"
       style="fill:#8da5f3;fill-opacity:1;stroke:none;stroke-width:0.999999px;stroke-linecap:butt;stroke-linejoin:miter;stroke-opacity:1"
       d="M 35.632812 7.7148438 A 1.3486488 1.3486488 0 0 0 35.535156 7.7167969 A 1.3486488 1.3486488 0 0 0 35.476562 7.7207031 A 1.3486488 1.3486488 0 0 0 34.613281 8.1503906 A 1.3486488 1.3486488 0 0 0 34.6875 10.054688 L 36.550781 11.773438 L 32.414062 11.773438 C 32.414062 10.224512 31.121209 8.9316406 29.572266 8.9316406 L 16.556641 8.9316406 L 17.552734 11.966797 L 29.380859 11.966797 L 29.380859 30.464844 L 23.615234 30.464844 L 24.609375 33.498047 L 29.572266 33.498047 C 31.121209 33.498047 32.414062 32.205176 32.414062 30.65625 L 32.414062 14.476562 L 36.128906 14.476562 L 34.472656 15.796875 A 1.3486488 1.3486488 0 0 0 34.259766 17.695312 A 1.3486488 1.3486488 0 0 0 36.15625 17.908203 L 40.773438 14.224609 A 1.3486488 1.3486488 0 0 0 40.904297 14.117188 A 1.3487837 1.3487837 0 0 0 40.957031 14.066406 A 1.3486488 1.3486488 0 0 0 40.972656 14.048828 A 1.3486488 1.3486488 0 0 0 41.136719 13.835938 A 1.3486488 1.3486488 0 0 0 41.148438 13.816406 A 1.3487837 1.3487837 0 0 0 41.185547 13.751953 A 1.3486488 1.3486488 0 0 0 41.197266 13.730469 A 1.3487837 1.3487837 0 0 0 41.210938 13.697266 A 1.3486488 1.3486488 0 0 0 41.236328 13.640625 A 1.3487837 1.3487837 0 0 0 41.263672 13.572266 A 1.3486488 1.3486488 0 0 0 41.271484 13.548828 A 1.3487837 1.3487837 0 0 0 41.292969 13.478516 A 1.3486488 1.3486488 0 0 0 41.298828 13.455078 A 1.3487837 1.3487837 0 0 0 41.314453 13.382812 A 1.3487837 1.3487837 0 0 0 41.337891 13.189453 A 1.3487837 1.3487837 0 0 0 41.335938 13.027344 A 1.3487837 1.3487837 0 0 0 41.251953 12.646484 A 1.3487837 1.3487837 0 0 0 41.216797 12.5625 A 1.3487837 1.3487837 0 0 0 41.214844 12.556641 A 1.3486488 1.3486488 0 0 0 41.212891 12.552734 A 1.3487837 1.3487837 0 0 0 41.169922 12.470703 A 1.3487837 1.3487837 0 0 0 41.119141 12.386719 A 1.3487837 1.3487837 0 0 0 41.066406 12.310547 A 1.3487837 1.3487837 0 0 0 41.064453 12.306641 A 1.3486488 1.3486488 0 0 0 41.029297 12.261719 A 1.3487837 1.3487837 0 0 0 41.001953 12.230469 A 1.3486488 1.3486488 0 0 0 40.996094 12.224609 A 1.3487837 1.3487837 0 0 0 40.933594 12.160156 A 1.3486488 1.3486488 0 0 0 40.910156 12.136719 L 40.863281 12.09375 L 36.517578 8.0761719 A 1.3486488 1.3486488 0 0 0 35.632812 7.7148438 z M 39.634766 23.902344 A 1.3486488 1.3486488 0 0 0 39.537109 23.904297 A 1.3486488 1.3486488 0 0 0 39.470703 23.910156 A 1.3486488 1.3486488 0 0 0 38.615234 24.337891 A 1.3486488 1.3486488 0 0 0 38.689453 26.242188 L 40.548828 27.962891 L 34.753906 27.962891 A 1.3486488 1.3486488 0 0 0 33.402344 29.314453 A 1.3486488 1.3486488 0 0 0 34.753906 30.664062 L 40.128906 30.664062 L 38.474609 31.986328 A 1.3486488 1.3486488 0 0 0 38.253906 33.882812 A 1.3486488 1.3486488 0 0 0 40.150391 34.097656 L 44.806641 30.388672 A 1.3486488 1.3486488 0 0 0 45.339844 29.314453 A 1.3486488 1.3486488 0 0 0 44.839844 28.265625 L 40.519531 24.263672 A 1.3486488 1.3486488 0 0 0 39.634766 23.902344 z M 25.833984 37.234375 L 26.828125 40.267578 L 42.142578 40.267578 A 1.5174803 1.5174803 0 0 0 43.664062 38.748047 A 1.5174803 1.5174803 0 0 0 42.142578 37.234375 L 25.833984 37.234375 z "
       transform="matrix(0.26458333,0,0,0.26458333,0,285)" />
  </g>
</svg>
