<?xml version="1.0" encoding="UTF-8" standalone="no"?>
<!-- Created with Inkscape (http://www.inkscape.org/) -->

<svg
   xmlns:dc="http://purl.org/dc/elements/1.1/"
   xmlns:cc="http://creativecommons.org/ns#"
   xmlns:rdf="http://www.w3.org/1999/02/22-rdf-syntax-ns#"
   xmlns:svg="http://www.w3.org/2000/svg"
   xmlns="http://www.w3.org/2000/svg"
   xmlns:sodipodi="http://sodipodi.sourceforge.net/DTD/sodipodi-0.dtd"
   xmlns:inkscape="http://www.inkscape.org/namespaces/inkscape"
   width="12mm"
   height="12mm"
   viewBox="0 0 12 12"
   version="1.1"
   id="svg3506"
   inkscape:version="0.92.5 (2060ec1f9f, 2020-04-08)"
   sodipodi:docname="InteractionArea2D.svg">
  <defs
     id="defs3500" />
  <sodipodi:namedview
     id="base"
     pagecolor="#ffffff"
     bordercolor="#666666"
     borderopacity="1.0"
     inkscape:pageopacity="0.0"
     inkscape:pageshadow="2"
     inkscape:zoom="18.616828"
     inkscape:cx="21.989658"
     inkscape:cy="15.854211"
     inkscape:document-units="mm"
     inkscape:current-layer="g886"
     showgrid="false"
     inkscape:window-width="1366"
     inkscape:window-height="710"
     inkscape:window-x="0"
     inkscape:window-y="30"
     inkscape:window-maximized="1"
     showguides="true"
     inkscape:guide-bbox="true" />
  <metadata
     id="metadata3503">
    <rdf:RDF>
      <cc:Work
         rdf:about="">
        <dc:format>image/svg+xml</dc:format>
        <dc:type
           rdf:resource="http://purl.org/dc/dcmitype/StillImage" />
        <dc:title />
      </cc:Work>
    </rdf:RDF>
  </metadata>
  <g
     inkscape:label="Layer 1"
     inkscape:groupmode="layer"
     id="layer1"
     transform="translate(0,-285)">
    <g
       id="g882"
       transform="translate(0.66385881,-0.7296564)">
      <g
         id="g886"
         transform="matrix(1.0896579,0,0,1.0896579,-0.60208609,-26.325768)">
        <g
           id="g851"
           style="stroke:#000000;stroke-width:0.99962455;stroke-miterlimit:4;stroke-dasharray:none;stroke-opacity:1"
           transform="translate(0,-0.53762411)" />
        <path
           style="opacity:1;fill:#8da5f3;fill-opacity:1;stroke:none;stroke-width:0.665986;stroke-linecap:round;stroke-linejoin:round;stroke-miterlimit:4;stroke-dasharray:none;stroke-opacity:1"
           d="m 1.5943873,289.95155 c -0.87168323,0 -1.57348942,0.70181 -1.57348942,1.57349 v 2.63558 c 0,0.87167 0.70180619,1.57346 1.57348942,1.57346 h 2.6355598 c 0.871683,0 1.5734894,-0.70179 1.5734894,-1.57346 v -2.63558 c 0,-0.87168 -0.7018064,-1.57349 -1.5734894,-1.57349 z m -0.2746382,1.23411 c 0.1408968,0 0.2539885,0.11309 0.2539885,0.25399 v 1.56594 c 0,0.14092 -0.1130932,0.25466 -0.2539885,0.25466 -0.1408969,0 -0.2546767,-0.11366 -0.2546767,-0.25466 v -1.56594 c 0,-0.14092 0.1137799,-0.25399 0.2546767,-0.25399 z m 3.2660573,0 c 0.1408972,0 0.2539883,0.11309 0.2539883,0.25399 v 1.56594 c 0,0.14092 -0.1130931,0.25466 -0.2539883,0.25466 -0.140897,0 -0.2546766,-0.11366 -0.2546766,-0.25466 v -1.56594 c 0,-0.14092 0.1137799,-0.25399 0.2546766,-0.25399 z m -0.3771969,2.58187 c 0.1602585,10e-4 0.2359964,0.19819 0.1177014,0.30633 -0.3695659,0.39664 -0.8627272,0.58711 -1.3506519,0.60973 -0.4879255,0.0225 -0.944533,-0.11918 -1.504481,-0.59253 -0.1330826,-0.105 -0.05584,-0.31886 0.1135707,-0.31455 0.042067,0.001 0.082353,0.0172 0.1135706,0.0455 0.5179441,0.43786 0.8863597,0.52738 1.2601285,0.50995 0.3737691,-0.0174 0.7792808,-0.14151 1.1097417,-0.49618 0.033644,-0.0435 0.085555,-0.0687 0.1404165,-0.0682 z"
           id="rect2208"
           inkscape:connector-curvature="0"
           sodipodi:nodetypes="sssssssssssssssssssssssccscccccc" />
        <path
           style="opacity:1;fill:#8da5f3;fill-opacity:1;stroke:none;stroke-width:0.55259955;stroke-linecap:round;stroke-linejoin:round;stroke-miterlimit:4;stroke-dasharray:none;stroke-opacity:1;paint-order:normal"
           d="m 5.9281508,293.78235 v 1.27702 c 0,0.14641 -0.030651,0.28526 -0.085098,0.41122 H 9.851225 c 0.276896,0 0.499737,-0.22285 0.499737,-0.49975 v -0.6882 c 0,-0.27689 -0.222841,-0.50029 -0.499737,-0.50029 z"
           id="rect2249"
           inkscape:connector-curvature="0" />
        <rect
           ry="0.24844804"
           rx="0.24844804"
           y="292.35373"
           x="6.7746916"
           height="1.1106628"
           width="3.3319895"
           id="rect2251"
           style="opacity:1;fill:#8da5f3;fill-opacity:1;stroke:none;stroke-width:0.3635523;stroke-linecap:round;stroke-linejoin:round;stroke-miterlimit:4;stroke-dasharray:none;stroke-opacity:1;paint-order:normal" />
        <path
           style="opacity:1;fill:#8da5f3;fill-opacity:1;stroke:none;stroke-width:0.55259955;stroke-linecap:round;stroke-linejoin:round;stroke-miterlimit:4;stroke-dasharray:none;stroke-opacity:1;paint-order:normal"
           d="m 8.9543801,288.62437 h 1.0366713 l -0.7539427,3.53632 H 8.2004371 Z"
           id="rect2253"
           inkscape:connector-curvature="0"
           sodipodi:nodetypes="ccccc" />
        <ellipse
           style="opacity:1;fill:#8da5f3;fill-opacity:1;stroke:none;stroke-width:0.8888967;stroke-linecap:round;stroke-linejoin:round;stroke-miterlimit:4;stroke-dasharray:none;stroke-opacity:1;paint-order:normal"
           id="path2256"
           cx="9.5216694"
           cy="288.10431"
           rx="1.4401665"
           ry="1.5412384" />
      </g>
    </g>
  </g>
</svg>
