<?xml version="1.0" encoding="UTF-8" standalone="no"?>
<!-- Created with Inkscape (http://www.inkscape.org/) -->

<svg
   xmlns:dc="http://purl.org/dc/elements/1.1/"
   xmlns:cc="http://creativecommons.org/ns#"
   xmlns:rdf="http://www.w3.org/1999/02/22-rdf-syntax-ns#"
   xmlns:svg="http://www.w3.org/2000/svg"
   xmlns="http://www.w3.org/2000/svg"
   xmlns:sodipodi="http://sodipodi.sourceforge.net/DTD/sodipodi-0.dtd"
   xmlns:inkscape="http://www.inkscape.org/namespaces/inkscape"
   width="12mm"
   height="12mm"
   viewBox="0 0 12 12"
   version="1.1"
   id="svg3506"
   inkscape:version="0.92.5 (2060ec1f9f, 2020-04-08)"
   sodipodi:docname="Component2D.svg">
  <defs
     id="defs3500" />
  <sodipodi:namedview
     id="base"
     pagecolor="#ffffff"
     bordercolor="#666666"
     borderopacity="1.0"
     inkscape:pageopacity="0.0"
     inkscape:pageshadow="2"
     inkscape:zoom="7.9195959"
     inkscape:cx="29.346128"
     inkscape:cy="16.017349"
     inkscape:document-units="mm"
     inkscape:current-layer="layer1"
     showgrid="false"
     inkscape:window-width="1366"
     inkscape:window-height="710"
     inkscape:window-x="0"
     inkscape:window-y="30"
     inkscape:window-maximized="1" />
  <metadata
     id="metadata3503">
    <rdf:RDF>
      <cc:Work
         rdf:about="">
        <dc:format>image/svg+xml</dc:format>
        <dc:type
           rdf:resource="http://purl.org/dc/dcmitype/StillImage" />
        <dc:title />
      </cc:Work>
    </rdf:RDF>
  </metadata>
  <g
     inkscape:label="Layer 1"
     inkscape:groupmode="layer"
     id="layer1"
     transform="translate(0,-285)">
    <path
       style="opacity:1;fill:#8da5f3;fill-opacity:1;stroke:none;stroke-width:3.31511116;stroke-linecap:round;stroke-linejoin:round;stroke-miterlimit:4;stroke-dasharray:none;stroke-opacity:1;paint-order:normal"
       d="m 1.9147707,286.22731 c -0.9089986,0 -1.64054497,0.73223 -1.64054497,1.64123 v 6.16897 c 0,0.909 0.73154637,1.64122 1.64054497,1.64122 h 1.6405456 v -1.00436 -0.43788 c -4e-7,-0.89689 0.7220087,-1.61889 1.6188876,-1.61889 0.8968795,0 1.6188878,0.722 1.6188881,1.61889 v 0.43788 1.00436 h 1.2913202 c 0.9089993,0 1.6405452,-0.73222 1.6405452,-1.64122 v -1.46526 h 0.021657 0.4378866 c 0.896876,0 1.618887,-0.72201 1.618887,-1.61889 0,-0.89688 -0.722011,-1.61889 -1.618887,-1.61889 H 9.7466147 9.7249574 v -1.46593 c 0,-0.909 -0.7315459,-1.64123 -1.6405452,-1.64123 z"
       id="rect4051"
       inkscape:connector-curvature="0" />
  </g>
</svg>
