<?xml version="1.0" encoding="UTF-8" standalone="no"?>
<!-- Created with Inkscape (http://www.inkscape.org/) -->

<svg
   xmlns:dc="http://purl.org/dc/elements/1.1/"
   xmlns:cc="http://creativecommons.org/ns#"
   xmlns:rdf="http://www.w3.org/1999/02/22-rdf-syntax-ns#"
   xmlns:svg="http://www.w3.org/2000/svg"
   xmlns="http://www.w3.org/2000/svg"
   xmlns:sodipodi="http://sodipodi.sourceforge.net/DTD/sodipodi-0.dtd"
   xmlns:inkscape="http://www.inkscape.org/namespaces/inkscape"
   width="12mm"
   height="12mm"
   viewBox="0 0 12 12"
   version="1.1"
   id="svg3506"
   inkscape:version="0.92.5 (2060ec1f9f, 2020-04-08)"
   sodipodi:docname="Dead2D.svg">
  <defs
     id="defs3500" />
  <sodipodi:namedview
     id="base"
     pagecolor="#ffffff"
     bordercolor="#666666"
     borderopacity="1.0"
     inkscape:pageopacity="0.0"
     inkscape:pageshadow="2"
     inkscape:zoom="9.3084142"
     inkscape:cx="18.663259"
     inkscape:cy="18.891116"
     inkscape:document-units="mm"
     inkscape:current-layer="g882"
     showgrid="false"
     inkscape:window-width="1366"
     inkscape:window-height="710"
     inkscape:window-x="0"
     inkscape:window-y="30"
     inkscape:window-maximized="1"
     showguides="true"
     inkscape:guide-bbox="true" />
  <metadata
     id="metadata3503">
    <rdf:RDF>
      <cc:Work
         rdf:about="">
        <dc:format>image/svg+xml</dc:format>
        <dc:type
           rdf:resource="http://purl.org/dc/dcmitype/StillImage" />
        <dc:title />
      </cc:Work>
    </rdf:RDF>
  </metadata>
  <g
     inkscape:label="Layer 1"
     inkscape:groupmode="layer"
     id="layer1"
     transform="translate(0,-285)">
    <g
       id="g882"
       transform="translate(0.66385881,-0.7296564)">
      <path
         style="opacity:1;fill:#8da5f3;fill-opacity:1;stroke:none;stroke-width:1.3796556;stroke-linecap:round;stroke-linejoin:miter;stroke-miterlimit:4;stroke-dasharray:none;stroke-opacity:1"
         d="m 5.368577,285.76323 c -2.6570505,10e-6 -4.81129923,2.15426 -4.81132172,4.81132 -4.554e-5,0.59938 0.11211802,1.19339 0.33030754,1.75163 -0.21664651,0.37859 -0.32878219,0.78149 -0.33030754,1.18795 4.9899e-4,0.86471 0.49999982,1.69416 1.39024172,2.30899 l 0.5784332,1.2675 c 0.081654,0.17906 0.17453,0.36033 0.3908903,0.36033 2.0583809,0.4091 3.8135648,0.22127 4.903513,0 0.2163589,0 0.3081827,-0.18127 0.3898364,-0.36033 l 0.5800138,-1.27118 c 0.8887118,-0.61405 1.3875073,-1.4419 1.3891883,-2.30531 -1.65e-4,-0.40989 -0.112444,-0.81632 -0.3313612,-1.19796 0.2174592,-0.55503 0.3297122,-1.1455 0.3313612,-1.74162 -2.4e-5,-2.65706 -2.1537445,-4.81131 -4.810795,-4.81132 z m -2.4134661,5.00513 c 0.6528099,0.0274 1.2853617,0.44876 1.6494806,1.09878 0.5498909,0.98153 0.3287313,2.17388 -0.4941001,2.66314 -0.8226469,0.48914 -1.9352498,0.0903 -2.4853829,-0.89078 -0.5502621,-0.98153 -0.329261,-2.17413 0.4936038,-2.66365 0.2496481,-0.14857 0.5372565,-0.21992 0.8363986,-0.20749 z m 4.8264054,0 c 0.2993196,-0.0125 0.5871084,0.0588 0.8368946,0.20749 0.8226547,0.48973 1.0434237,1.68227 0.4931079,2.66365 -0.5501331,0.9811 -1.6626913,1.37985 -2.485383,0.89078 -0.8227864,-0.48934 -1.043991,-1.68161 -0.4941003,-2.66314 0.3641191,-0.65002 0.9966709,-1.07139 1.6494808,-1.09878 z m -2.3847957,3.34756 c 0.2847453,-0.0192 0.6555732,0.36832 0.8474317,0.8856 0.2012559,0.54203 0.1324977,1.02638 -0.153539,1.08156 -0.2042841,0.039 -0.473729,-0.153 -0.6879547,-0.49031 -0.2139266,0.33677 -0.4829191,0.52872 -0.6871064,0.49031 -0.2860367,-0.0551 -0.354795,-0.53953 -0.153539,-1.08156 0.1887149,-0.50835 0.551005,-0.89273 0.8347074,-0.8856 z"
         id="path843"
         inkscape:connector-curvature="0"
         sodipodi:nodetypes="ccccccccccccccccscccccccccccccccc" />
    </g>
  </g>
</svg>
