<?xml version="1.0" encoding="UTF-8" standalone="no"?>
<!-- Created with Inkscape (http://www.inkscape.org/) -->

<svg
   xmlns:dc="http://purl.org/dc/elements/1.1/"
   xmlns:cc="http://creativecommons.org/ns#"
   xmlns:rdf="http://www.w3.org/1999/02/22-rdf-syntax-ns#"
   xmlns:svg="http://www.w3.org/2000/svg"
   xmlns="http://www.w3.org/2000/svg"
   xmlns:sodipodi="http://sodipodi.sourceforge.net/DTD/sodipodi-0.dtd"
   xmlns:inkscape="http://www.inkscape.org/namespaces/inkscape"
   width="12mm"
   height="12mm"
   viewBox="0 0 12 12"
   version="1.1"
   id="svg3506"
   inkscape:version="0.92.5 (2060ec1f9f, 2020-04-08)"
   sodipodi:docname="FactionTag.svg">
  <defs
     id="defs3500" />
  <sodipodi:namedview
     id="base"
     pagecolor="#ffffff"
     bordercolor="#666666"
     borderopacity="1.0"
     inkscape:pageopacity="0.0"
     inkscape:pageshadow="2"
     inkscape:zoom="9.3084138"
     inkscape:cx="30.599816"
     inkscape:cy="24.676319"
     inkscape:document-units="mm"
     inkscape:current-layer="g831"
     showgrid="false"
     inkscape:window-width="1366"
     inkscape:window-height="710"
     inkscape:window-x="0"
     inkscape:window-y="30"
     inkscape:window-maximized="1"
     showguides="true"
     inkscape:guide-bbox="true"
     inkscape:pagecheckerboard="true" />
  <metadata
     id="metadata3503">
    <rdf:RDF>
      <cc:Work
         rdf:about="">
        <dc:format>image/svg+xml</dc:format>
        <dc:type
           rdf:resource="http://purl.org/dc/dcmitype/StillImage" />
        <dc:title />
      </cc:Work>
    </rdf:RDF>
  </metadata>
  <g
     inkscape:label="Layer 1"
     inkscape:groupmode="layer"
     id="layer1"
     transform="translate(0,-285)">
    <g
       id="g882"
       transform="translate(0.66385881,-0.7296564)">
      <g
         id="g886"
         transform="matrix(1.0896579,0,0,1.0896579,-0.60208609,-26.325768)">
        <g
           id="g851"
           style="stroke:#000000;stroke-width:0.99962455;stroke-miterlimit:4;stroke-dasharray:none;stroke-opacity:1"
           transform="translate(0,-0.53762411)" />
        <g
           id="g831"
           transform="matrix(0.95879362,0,0,0.95879362,0.17880085,11.966682)">
          <g
             id="g832"
             transform="rotate(15,0.84056417,293.21225)">
            <rect
               style="opacity:1;fill:#ffffff;fill-opacity:1;stroke:none;stroke-width:1.9076165;stroke-linecap:round;stroke-linejoin:round;stroke-miterlimit:4;stroke-dasharray:none;stroke-opacity:1;paint-order:normal"
               id="rect847"
               width="0.76807487"
               height="10.694945"
               x="0.75000429"
               y="286.51575"
               rx="0"
               ry="0" />
            <path
               style="opacity:1;fill:#ffffff;fill-opacity:1;stroke:none;stroke-width:1.8991735;stroke-linecap:round;stroke-linejoin:round;stroke-miterlimit:4;stroke-dasharray:none;stroke-opacity:1;paint-order:normal"
               d="m 4.7542179,287.048 c -0.6496953,-0.0243 -1.2992438,-0.36745 -1.9708638,0.081 v 4.50562 c 0.6683047,-0.40908 1.332081,-0.0652 1.9804134,-0.041 0.7950329,0.0297 0.7632646,0.2953 1.5200186,0.57662 0.7567541,0.28132 1.200359,0.5785 1.9321886,0.68712 0.6438304,0.0956 1.2761179,0.0491 1.9194783,-0.27875 v -4.5229 c -0.6553182,0.30427 -1.3101339,0.3501 -1.9531293,0.25466 C 7.4124798,288.19611 6.9562241,287.89179 6.2032965,287.61189 5.4503689,287.33198 5.5027814,287.076 4.7542179,287.048 Z"
               id="path868"
               inkscape:connector-curvature="0"
               sodipodi:nodetypes="cccsccccccc" />
            <path
               style="color:#000000;font-style:normal;font-variant:normal;font-weight:normal;font-stretch:normal;font-size:medium;line-height:normal;font-family:sans-serif;font-variant-ligatures:normal;font-variant-position:normal;font-variant-caps:normal;font-variant-numeric:normal;font-variant-alternates:normal;font-feature-settings:normal;text-indent:0;text-align:start;text-decoration:none;text-decoration-line:none;text-decoration-style:solid;text-decoration-color:#000000;letter-spacing:normal;word-spacing:normal;text-transform:none;writing-mode:lr-tb;direction:ltr;text-orientation:mixed;dominant-baseline:auto;baseline-shift:baseline;text-anchor:start;white-space:normal;shape-padding:0;clip-rule:nonzero;display:inline;overflow:visible;visibility:visible;opacity:1;isolation:auto;mix-blend-mode:normal;color-interpolation:sRGB;color-interpolation-filters:linearRGB;solid-color:#000000;solid-opacity:1;vector-effect:none;fill:#ffffff;fill-opacity:1;fill-rule:nonzero;stroke:none;stroke-width:0.4998706;stroke-linecap:butt;stroke-linejoin:miter;stroke-miterlimit:4;stroke-dasharray:none;stroke-dashoffset:0;stroke-opacity:1;color-rendering:auto;image-rendering:auto;shape-rendering:auto;text-rendering:auto;enable-background:accumulate"
               d="m 3.7955599,291.1516 c -0.8445636,1.9e-4 -1.7671539,0.34305 -2.7734375,1.27809 l 0.2578125,0.46132 c 0.9453101,-0.87837 1.7612583,-1.17203 2.515625,-1.17221 0.7543668,-1.8e-4 1.4540695,0.30211 2.1445312,0.66047 0.6904619,0.35836 1.3671522,0.77431 2.0761719,0.96551 0.7090197,0.19119 1.4606055,0.14029 2.230469,-0.43864 l -0.222656,-0.49158 c -0.6754258,0.50792 -1.2812112,0.54733 -1.9179692,0.37562 -0.636758,-0.17172 -1.2954235,-0.57107 -2.0019531,-0.93777 -0.7065299,-0.3667 -1.4640304,-0.70102 -2.3085938,-0.70081 z"
               id="path874"
               inkscape:connector-curvature="0" />
            <path
               inkscape:connector-curvature="0"
               id="path880"
               d="m 3.7955599,286.66943 c -0.8445636,1.9e-4 -1.7671539,0.34305 -2.7734375,1.27809 l 0.2578125,0.46132 c 0.9453101,-0.87837 1.7612583,-1.17203 2.515625,-1.17221 0.7543668,-1.8e-4 1.4540695,0.30211 2.1445312,0.66047 0.6904619,0.35836 1.3671522,0.77431 2.0761719,0.96551 0.7090197,0.19119 1.4606055,0.14029 2.230469,-0.43864 l -0.222656,-0.49158 c -0.6754258,0.50792 -1.2812112,0.54733 -1.9179692,0.37562 -0.636758,-0.17172 -1.2954235,-0.57107 -2.0019531,-0.93777 -0.7065299,-0.3667 -1.4640304,-0.70102 -2.3085938,-0.70081 z"
               style="color:#000000;font-style:normal;font-variant:normal;font-weight:normal;font-stretch:normal;font-size:medium;line-height:normal;font-family:sans-serif;font-variant-ligatures:normal;font-variant-position:normal;font-variant-caps:normal;font-variant-numeric:normal;font-variant-alternates:normal;font-feature-settings:normal;text-indent:0;text-align:start;text-decoration:none;text-decoration-line:none;text-decoration-style:solid;text-decoration-color:#000000;letter-spacing:normal;word-spacing:normal;text-transform:none;writing-mode:lr-tb;direction:ltr;text-orientation:mixed;dominant-baseline:auto;baseline-shift:baseline;text-anchor:start;white-space:normal;shape-padding:0;clip-rule:nonzero;display:inline;overflow:visible;visibility:visible;opacity:1;isolation:auto;mix-blend-mode:normal;color-interpolation:sRGB;color-interpolation-filters:linearRGB;solid-color:#000000;solid-opacity:1;vector-effect:none;fill:#ffffff;fill-opacity:1;fill-rule:nonzero;stroke:none;stroke-width:0.4998706;stroke-linecap:butt;stroke-linejoin:miter;stroke-miterlimit:4;stroke-dasharray:none;stroke-dashoffset:0;stroke-opacity:1;color-rendering:auto;image-rendering:auto;shape-rendering:auto;text-rendering:auto;enable-background:accumulate" />
          </g>
        </g>
      </g>
    </g>
  </g>
</svg>
