<?xml version="1.0" encoding="UTF-8" standalone="no"?>
<svg
   xmlns:dc="http://purl.org/dc/elements/1.1/"
   xmlns:cc="http://creativecommons.org/ns#"
   xmlns:rdf="http://www.w3.org/1999/02/22-rdf-syntax-ns#"
   xmlns:svg="http://www.w3.org/2000/svg"
   xmlns="http://www.w3.org/2000/svg"
   xmlns:sodipodi="http://sodipodi.sourceforge.net/DTD/sodipodi-0.dtd"
   xmlns:inkscape="http://www.inkscape.org/namespaces/inkscape"
   width="12mm"
   height="12mm"
   viewBox="0 0 12 12"
   version="1.1"
   id="svg3506"
   inkscape:version="1.0.2-2 (e86c870879, 2021-01-15)"
   sodipodi:docname="Gibbinator2D.svg">
  <defs
     id="defs3500">
    <inkscape:path-effect
       effect="powerstroke"
       id="path-effect1508"
       is_visible="true"
       offset_points="0.19162691,0.32322442 | 0.49021424,0.29183335 | 0.81131301,0.15677988"
       sort_points="true"
       interpolator_type="CubicBezierFit"
       interpolator_beta="0.2"
       start_linecap_type="round"
       linejoin_type="extrp_arc"
       miter_limit="4"
       end_linecap_type="round" />
  </defs>
  <sodipodi:namedview
     id="base"
     pagecolor="#ffffff"
     bordercolor="#666666"
     borderopacity="1.0"
     inkscape:pageopacity="0.0"
     inkscape:pageshadow="2"
     inkscape:zoom="11.313709"
     inkscape:cx="36.37567"
     inkscape:cy="29.49791"
     inkscape:document-units="mm"
     inkscape:current-layer="g1518"
     showgrid="false"
     inkscape:window-width="1440"
     inkscape:window-height="837"
     inkscape:window-x="-8"
     inkscape:window-y="32"
     inkscape:window-maximized="1"
     showguides="true"
     inkscape:document-rotation="0"
     inkscape:guide-bbox="true" />
  <metadata
     id="metadata3503">
    <rdf:RDF>
      <cc:Work
         rdf:about="">
        <dc:format>image/svg+xml</dc:format>
        <dc:type
           rdf:resource="http://purl.org/dc/dcmitype/StillImage" />
        <dc:title />
      </cc:Work>
    </rdf:RDF>
  </metadata>
  <g
     inkscape:label="Layer 1"
     inkscape:groupmode="layer"
     id="layer1"
     transform="translate(0,-285)">
    <g
       id="g1518"
       transform="matrix(1.0470461,0,0,1.0470461,-0.28537154,-13.792827)">
      <path
         inkscape:connector-curvature="0"
         id="rect4051"
         d="m 0.86417964,292.20016 c -0.41107743,0.23734 -0.55080393,0.75953 -0.31346307,1.17062 l 0.42810884,0.7415 0.25776749,-0.14882 c 0.3820636,-0.22059 0.8781598,-0.0717 1.1122331,0.33379 0.2340638,0.40541 0.1148712,0.90927 -0.2671924,1.12986 l -0.2577675,0.14882 0.3375791,0.58471 c 0.2373361,0.41107 0.7594296,0.55116 1.1705071,0.31383 l 0.7417535,-0.42826 -0.2622918,-0.4543 -0.1142813,-0.19794 c -0.2341724,-0.40559 -0.096146,-0.92072 0.3094508,-1.15489 0.4055969,-0.23417 0.9207208,-0.0961 1.1548932,0.30945 l 0.1142814,0.19795 0.2622918,0.4543 0.5840083,-0.33718 c 0.4110773,-0.23733 0.5505701,-0.7594 0.3132339,-1.17047 l -0.3826456,-0.66276 0.00982,-0.006 0.1981749,-0.11441 c 0.405595,-0.23417 0.5433896,-0.74916 0.3092173,-1.15476 -0.2341677,-0.40559 -0.7489275,-0.54353 -1.1545225,-0.30936 l -0.1981749,0.11442 -0.00982,0.006 -0.3827778,-0.66298 c -0.2373409,-0.41109 -0.7592006,-0.55131 -1.170278,-0.31398 z"
         style="opacity:1;fill:#8da5f3;fill-opacity:1;stroke:none;stroke-width:1.73112202;stroke-linecap:round;stroke-linejoin:round;stroke-miterlimit:4;stroke-dasharray:none;stroke-opacity:1;paint-order:normal" />
      <rect
         transform="rotate(45)"
         ry="0.19448192"
         rx="0.19448192"
         y="204.05652"
         x="213.30135"
         height="1.1489624"
         width="1.1825621"
         id="rect907"
         style="opacity:1;fill:#8da5f3;fill-opacity:1;stroke:none;stroke-width:0.43707728;stroke-linecap:round;stroke-linejoin:round;stroke-miterlimit:4;stroke-dasharray:none;stroke-opacity:1;paint-order:normal" />
      <path
         sodipodi:nodetypes="ssccssccsssccssccsss"
         style="opacity:1;fill:#8da5f3;fill-opacity:1;stroke:none;stroke-width:1.41418862;stroke-linecap:round;stroke-linejoin:round;stroke-miterlimit:4;stroke-dasharray:none;stroke-opacity:1;paint-order:normal"
         d="m 11.490855,294.16642 c 0.274194,-0.27419 0.27404,-0.71579 -1.55e-4,-0.98999 l -0.494602,-0.4946 c -0.976269,-0.97626 0,0 -0.976269,-0.97626 l -0.3900069,-0.39002 c -0.2741938,-0.27418 -0.7157907,-0.27434 -0.9899844,-1.5e-4 l -0.4947591,0.49476 0.3030279,0.30303 0.1320267,0.13203 c 0.2705407,0.27055 0.27054,0.70621 2.5e-6,0.97674 -0.2705383,0.27053 -0.7061976,0.27053 -0.9767385,-1e-5 l -0.1320264,-0.13202 -0.3030283,-0.30303 -0.3895409,0.38954 c -0.2741936,0.27419 -0.2738836,0.71563 3.105e-4,0.98983 l 0.442071,0.44207 0.9765803,0.97658 0.4422283,0.44222 c 0.2741936,0.2742 0.715635,0.27451 0.9898288,3.3e-4 z"
         id="path1502"
         inkscape:connector-curvature="0" />
      <path
         inkscape:connector-curvature="0"
         id="path1504"
         d="m 8.8009911,290.62327 1.7554969,-1.01354 -1.8438395,-0.20118 1.3030585,-2.73862 -2.5177736,1.41349 -1.0822003,-2.31901 -1.1263716,2.1644 -2.6502866,-1.52392 0.9496865,2.82698 -1.9877155,-0.0442 1.5239151,0.99385"
         style="fill:none;stroke:#8da5f3;stroke-width:0.62802333;stroke-linecap:round;stroke-linejoin:round;stroke-miterlimit:4;stroke-dasharray:none;stroke-opacity:1" />
      <path
         sodipodi:nodetypes="cc"
         inkscape:connector-curvature="0"
         id="path1506"
         d="m 6.5875414,290.7562 0.6549932,-1.24262"
         style="fill:none;fill-rule:nonzero;stroke:#8da5f3;stroke-width:0.66107714;stroke-linecap:round;stroke-linejoin:round;stroke-miterlimit:4;stroke-dasharray:none;stroke-opacity:1" />
      <path
         style="fill:none;fill-rule:nonzero;stroke:#8da5f3;stroke-width:0.66107714;stroke-linecap:round;stroke-linejoin:round;stroke-miterlimit:4;stroke-dasharray:none;stroke-opacity:1"
         d="M 5.7281475,290.20517 5.4782784,289.20568"
         id="path1510"
         inkscape:connector-curvature="0"
         sodipodi:nodetypes="cc" />
    </g>
  </g>
</svg>
