<?xml version="1.0" encoding="UTF-8" standalone="no"?>
<svg
   xmlns:dc="http://purl.org/dc/elements/1.1/"
   xmlns:cc="http://creativecommons.org/ns#"
   xmlns:rdf="http://www.w3.org/1999/02/22-rdf-syntax-ns#"
   xmlns:svg="http://www.w3.org/2000/svg"
   xmlns="http://www.w3.org/2000/svg"
   xmlns:sodipodi="http://sodipodi.sourceforge.net/DTD/sodipodi-0.dtd"
   xmlns:inkscape="http://www.inkscape.org/namespaces/inkscape"
   width="12mm"
   height="12mm"
   viewBox="0 0 12 12"
   version="1.1"
   id="svg3506"
   inkscape:version="0.92.5 (2060ec1f9f, 2020-04-08)"
   sodipodi:docname="GraphicsContainer2D.svg">
  <defs
     id="defs3500">
    <inkscape:path-effect
       effect="perspective-envelope"
       up_left_point="87.14311,49.34514"
       up_right_point="134.23047,24.110288"
       down_left_point="87.14311,99.807981"
       down_right_point="134.23048,74.580067"
       id="path-effect906"
       is_visible="true"
       lpeversion="1"
       deform_type="perspective"
       horizontal_mirror="false"
       vertical_mirror="false"
       overflow_perspective="false" />
    <inkscape:path-effect
       effect="envelope"
       id="path-effect904"
       is_visible="true"
       lpeversion="1"
       yy="true"
       xx="true"
       bendpath1="M 94.449219,50.001953 H 134.23047"
       bendpath2="M 134.23047,50.001953 V 85.357422"
       bendpath3="M 94.449219,85.357422 H 134.23047"
       bendpath4="M 94.449219,50.001953 V 85.357422" />
    <inkscape:path-effect
       effect="perspective-envelope"
       up_left_point="14.199924,286.4266"
       up_right_point="17.126092,287.64892"
       down_left_point="13.830132,288.64481"
       down_right_point="16.130203,290.94488"
       id="path-effect8"
       is_visible="true"
       lpeversion="1"
       deform_type="envelope_deformation"
       horizontal_mirror="false"
       vertical_mirror="false"
       overflow_perspective="true" />
  </defs>
  <sodipodi:namedview
     id="base"
     pagecolor="#ffffff"
     bordercolor="#666666"
     borderopacity="1.0"
     inkscape:pageopacity="0.0"
     inkscape:pageshadow="2"
     inkscape:zoom="1.979899"
     inkscape:cx="124.25342"
     inkscape:cy="40.616072"
     inkscape:document-units="mm"
     inkscape:current-layer="g897"
     showgrid="true"
     inkscape:window-width="1366"
     inkscape:window-height="710"
     inkscape:window-x="0"
     inkscape:window-y="30"
     inkscape:window-maximized="1"
     inkscape:showpageshadow="2"
     inkscape:pagecheckerboard="0"
     inkscape:deskcolor="#d1d1d1"
     showguides="true"
     inkscape:document-rotation="0" />
  <metadata
     id="metadata3503">
    <rdf:RDF>
      <cc:Work
         rdf:about="">
        <dc:format>image/svg+xml</dc:format>
        <dc:type
           rdf:resource="http://purl.org/dc/dcmitype/StillImage" />
        <dc:title />
      </cc:Work>
    </rdf:RDF>
  </metadata>
  <g
     inkscape:label="Layer 1"
     inkscape:groupmode="layer"
     id="layer1"
     transform="translate(0,-285)">
    <g
       transform="rotate(-135,19.334381,286.67558)"
       id="g897">
      <g
         id="g1007"
         transform="matrix(-0.98505034,-1.1782938,1.1782938,-0.98505034,-322.99628,570.39939)"
         style="stroke:#0e2982;stroke-opacity:1" />
      <g
         id="g886"
         transform="matrix(-0.77050449,0.77050449,-0.77050449,-0.77050449,243.26262,502.41442)">
        <path
           id="rect1721"
           style="fill:#8da5f3;fill-opacity:1;stroke:none;stroke-width:4.9223;stroke-linecap:round;stroke-linejoin:round;stroke-miterlimit:4;stroke-dasharray:none;stroke-opacity:1"
           d="m 6.4003906,6.4726562 c -0.9629459,0 -1.2133798,0.9310765 -1.7382812,1.7382813 L 0.76757812,14.199219 c -0.524922,0.807205 0.77533938,1.736328 1.73828128,1.736328 h 6.25 c 3.8259576,-3.538665 8.7209776,-5.585171 13.8906246,-5.585938 5.169161,0.0013 10.062565,2.047464 13.888672,5.585938 h 6.25 c 0.96296,0 2.263263,-0.929041 1.738282,-1.736328 L 40.628906,8.2109375 C 40.104028,7.4037327 39.853569,6.4726563 38.890625,6.4726562 Z M 22.646484,14.128906 c -2.513105,3.67e-4 -4.926108,0.642869 -7.128906,1.806641 h 2.685547 c 1.270405,-0.864682 2.801892,-1.371202 4.443359,-1.371094 1.641129,3.88e-4 3.170974,0.50634 4.441407,1.371094 h 2.679687 C 27.567431,14.772937 25.15785,14.129529 22.646484,14.128906 Z M 6.4003906,18.119141 c -0.9629459,0 -1.2133798,0.931117 -1.7382812,1.738281 L 0.76757812,25.84375 c -0.524922,0.807164 0.77533938,1.738281 1.73828128,1.738281 H 7.296875 c -1.1218251,-1.247444 -2.1315652,-2.62949 -2.9902344,-4.146484 -0.3252294,-0.576431 -0.3252294,-1.280991 0,-1.857422 0.7024289,-1.241754 1.504868,-2.395457 2.3867188,-3.458984 z m 5.9199214,0 c -1.441528,1.229026 -2.7410435,2.705883 -3.8476558,4.392578 1.3221059,2.012623 2.9176098,3.724112 4.7050778,5.070312 H 16.5625 c -1.155653,-1.379984 -1.855592,-3.152845 -1.855469,-5.080078 3.81e-4,-1.616758 0.492991,-3.123694 1.333985,-4.382812 z m 16.929688,0 c 0.841143,1.259 1.333603,2.766349 1.333984,4.382812 1.23e-4,1.926836 -0.699693,3.700188 -1.855468,5.080078 h 3.378906 c 1.786178,-1.34619 3.381085,-3.057937 4.703125,-5.070312 -1.106638,-1.686609 -2.40505,-3.163534 -3.845703,-4.392578 z m 9.347656,0 c 0.881859,1.063448 1.684357,2.217348 2.386719,3.458984 0.325229,0.576431 0.325229,1.280991 0,1.857422 -0.858588,1.51685 -1.868386,2.89913 -2.990234,4.146484 h 4.791015 c 0.96296,0 2.263263,-0.930994 1.738282,-1.738281 L 40.628906,19.857422 C 40.104028,19.050258 39.853569,18.119141 38.890625,18.119141 Z M 6.4003906,29.068359 c -0.9629459,0 -1.2133798,0.931077 -1.7382812,1.738282 l -3.89453128,5.988281 c -0.524922,0.807205 0.77533938,1.738281 1.73828128,1.738281 H 42.785156 c 0.96296,0 2.263263,-0.930953 1.738282,-1.738281 L 40.628906,30.806641 C 40.104028,29.999436 39.853569,29.068359 38.890625,29.068359 H 36.542969 C 32.715396,32.60928 27.818567,34.655852 22.646484,34.65625 17.473915,34.656392 12.575471,32.60948 8.7480469,29.068359 Z m 9.1074214,0 c 2.205676,1.164417 4.622822,1.808668 7.138672,1.808594 2.515505,-1.83e-4 4.928802,-0.644111 7.132813,-1.808594 h -2.689453 c -1.271012,0.865584 -2.800914,1.37266 -4.44336,1.373047 -1.642784,9.3e-5 -3.174328,-0.507536 -4.445312,-1.373047 z"
           transform="matrix(0.24281321,0,0,0.24281321,-12.429223,283.77346)"
           sodipodi:nodetypes="sccscccsccsscccccccsccsccccsccccccccccccccccccsccscsccssccscccsccccccc" />
        <g
           id="g851"
           style="stroke:#000000;stroke-width:0.999625;stroke-miterlimit:4;stroke-dasharray:none;stroke-opacity:1"
           transform="translate(0,-0.53762411)" />
        <g
           id="path1728"
           style="opacity:1"
           transform="translate(-0.16887301,-0.05745143)">
          <path
             style="color:#000000;font-style:normal;font-variant:normal;font-weight:normal;font-stretch:normal;font-size:medium;line-height:normal;font-family:sans-serif;font-variant-ligatures:normal;font-variant-position:normal;font-variant-caps:normal;font-variant-numeric:normal;font-variant-alternates:normal;font-variant-east-asian:normal;font-feature-settings:normal;font-variation-settings:normal;text-indent:0;text-align:start;text-decoration:none;text-decoration-line:none;text-decoration-style:solid;text-decoration-color:#000000;letter-spacing:normal;word-spacing:normal;text-transform:none;writing-mode:lr-tb;direction:ltr;text-orientation:mixed;dominant-baseline:auto;baseline-shift:baseline;text-anchor:start;white-space:normal;shape-padding:0;shape-margin:0;inline-size:0;clip-rule:nonzero;display:inline;overflow:visible;visibility:visible;isolation:auto;mix-blend-mode:normal;color-interpolation:sRGB;color-interpolation-filters:linearRGB;solid-color:#000000;solid-opacity:1;vector-effect:none;fill:#8da5f3;fill-opacity:1;fill-rule:nonzero;stroke:none;stroke-width:0.917719;stroke-linecap:round;stroke-linejoin:round;stroke-miterlimit:4;stroke-dasharray:none;stroke-dashoffset:0;stroke-opacity:1;color-rendering:auto;image-rendering:auto;shape-rendering:auto;text-rendering:auto;enable-background:accumulate;stop-color:#000000;stop-opacity:1"
             d="m -6.7618242,286.80301 c -1.6461505,2.4e-4 -3.1770182,0.94142 -4.0545688,2.49276 0.8778294,1.55084 2.4086472,2.4915 4.0545688,2.49146 1.6457663,-1.3e-4 3.1763855,-0.94077 4.0541321,-2.49146 -0.8774678,-1.55119 -2.4081369,-2.49235 -4.0541321,-2.49276 z m 0,1.02358 c 0.8108469,1.9e-4 1.4681211,0.65746 1.4683123,1.46831 5.17e-5,0.81102 -0.6572936,1.46856 -1.4683123,1.46875 -0.8111893,5e-5 -1.4688008,-0.65756 -1.4687491,-1.46875 1.913e-4,-0.81102 0.6577316,-1.46836 1.4687491,-1.46831 z"
             id="path1741" />
        </g>
      </g>
    </g>
  </g>
</svg>
