<?xml version="1.0" encoding="UTF-8" standalone="no"?>
<svg
   xmlns:dc="http://purl.org/dc/elements/1.1/"
   xmlns:cc="http://creativecommons.org/ns#"
   xmlns:rdf="http://www.w3.org/1999/02/22-rdf-syntax-ns#"
   xmlns:svg="http://www.w3.org/2000/svg"
   xmlns="http://www.w3.org/2000/svg"
   xmlns:sodipodi="http://sodipodi.sourceforge.net/DTD/sodipodi-0.dtd"
   xmlns:inkscape="http://www.inkscape.org/namespaces/inkscape"
   width="12mm"
   height="12mm"
   viewBox="0 0 12 12"
   version="1.1"
   id="svg3506"
   inkscape:version="1.0.2-2 (e86c870879, 2021-01-15)"
   sodipodi:docname="Gun2D.svg">
  <defs
     id="defs3500" />
  <sodipodi:namedview
     id="base"
     pagecolor="#ffffff"
     bordercolor="#666666"
     borderopacity="1.0"
     inkscape:pageopacity="0.0"
     inkscape:pageshadow="2"
     inkscape:zoom="6.5820425"
     inkscape:cx="15.067019"
     inkscape:cy="25.265806"
     inkscape:document-units="mm"
     inkscape:current-layer="g886"
     showgrid="false"
     inkscape:window-width="1440"
     inkscape:window-height="837"
     inkscape:window-x="-8"
     inkscape:window-y="32"
     inkscape:window-maximized="1"
     showguides="true"
     inkscape:guide-bbox="true"
     inkscape:document-rotation="0" />
  <metadata
     id="metadata3503">
    <rdf:RDF>
      <cc:Work
         rdf:about="">
        <dc:format>image/svg+xml</dc:format>
        <dc:type
           rdf:resource="http://purl.org/dc/dcmitype/StillImage" />
        <dc:title />
      </cc:Work>
    </rdf:RDF>
  </metadata>
  <g
     inkscape:label="Layer 1"
     inkscape:groupmode="layer"
     id="layer1"
     transform="translate(0,-285)">
    <g
       id="g882"
       transform="translate(0.66385881,-0.7296564)">
      <g
         id="g886"
         transform="matrix(1.0896579,0,0,1.0896579,-0.60208609,-26.325768)">
        <g
           id="g851"
           style="stroke:#000000;stroke-width:0.99962455;stroke-miterlimit:4;stroke-dasharray:none;stroke-opacity:1"
           transform="translate(0,-0.53762411)" />
        <path
           id="rect899"
           style="fill:#8da5f3;fill-opacity:1;stroke:none;stroke-width:2.72092;stroke-linecap:round;stroke-linejoin:round"
           d="m 2.5020697,290.26704 h 6.111621 c 0.3560996,0 0.6427841,0.28666 0.6427788,0.64276 l 2.3e-6,2.24544 c 2e-7,0.35609 -0.2866806,0.64276 -0.6427798,0.64277 l -6.538138,-10e-6 c -0.3560974,10e-6 -0.7092041,-0.29298 -0.6427756,-0.64276 l 0.4265141,-2.24544 c 0.066465,-0.34985 0.2866799,-0.64276 0.6427772,-0.64276 z"
           sodipodi:nodetypes="sssssssss" />
        <path
           id="rect903"
           style="fill:#8da5f3;fill-opacity:1;stroke:none;stroke-width:2.42524;stroke-linecap:round;stroke-linejoin:round"
           d="m 8.7334681,289.65766 h 0.7735812 c 0.14851,10e-6 0.2680996,0.50228 0.2680945,0.65091 l 1.7e-6,3.22079 c 8e-7,0.14853 -0.119569,0.26811 -0.2680953,0.26812 H 8.7334686 c -0.1485092,-3e-5 -0.2680969,-0.11972 -0.2681013,-0.26811 l -1.3e-6,-3.22079 c 3.8e-6,-0.14853 0.1195755,-0.65092 0.2680964,-0.65091 z"
           sodipodi:nodetypes="sssssssss" />
        <path
           id="rect905"
           style="fill:#8da5f3;fill-opacity:1;stroke:none;stroke-width:2.44353;stroke-linecap:round;stroke-linejoin:round"
           d="m 8.4503035,289.65766 h 1.3248403 l 2.5e-6,1.94988 H 8.4503059 Z"
           sodipodi:nodetypes="ccccc" />
        <rect
           style="fill:#8da5f3;fill-opacity:1;stroke:none;stroke-width:2.42524;stroke-linecap:round;stroke-linejoin:round"
           id="rect907"
           width="3.1081314"
           height="1.9250362"
           x="0.89365751"
           y="291.4346"
           rx="0.36094424"
           ry="0.36094424" />
        <path
           id="rect909"
           style="fill:#8da5f3;fill-opacity:1;stroke:none;stroke-width:2.42524;stroke-linecap:round;stroke-linejoin:round"
           d="m 2.4088529,293.05013 2.4400828,-2e-5 c 0.1999791,-1e-5 0.4290138,0.17287 0.3609383,0.36095 l -0.950004,2.62441 c -0.068115,0.18818 -0.1609663,0.36093 -0.3609444,0.36094 H 1.4588431 c -0.1999791,2e-5 -0.4290055,-0.17286 -0.3609458,-0.36093 l 0.9500092,-2.62442 c 0.068107,-0.18819 0.1609918,-0.36093 0.3609464,-0.36093 z"
           sodipodi:nodetypes="sssssssss" />
        <rect
           style="fill:#8da5f3;fill-opacity:1;stroke:none;stroke-width:2.42524;stroke-linecap:round;stroke-linejoin:round"
           id="rect914"
           width="1.0350838"
           height="1.5029985"
           x="9.0801802"
           y="291.15121"
           rx="0"
           ry="0" />
        <path
           style="fill:none;stroke:#8da5f3;stroke-width:0.568549;stroke-linecap:butt;stroke-linejoin:miter;stroke-miterlimit:4;stroke-dasharray:none;stroke-opacity:1"
           d="m 4.3314638,294.78847 h 1.8505987 l 0.9708057,-1.70903 H 4.3112388 Z"
           id="path2789"
           sodipodi:nodetypes="ccccc" />
        <path
           style="fill:none;stroke:#8da5f3;stroke-width:0.266245px;stroke-linecap:butt;stroke-linejoin:miter;stroke-opacity:1"
           d="m 5.7472223,293.23113 c -0.4595906,0.30338 -0.2068058,0.60675 0,0.91013"
           id="path2791"
           sodipodi:nodetypes="cc" />
        <path
           inkscape:connector-curvature="0"
           id="path1504"
           d="m 6.9591728,289.79813 1.1462349,-0.66177 -1.2039174,-0.13137 0.8508197,-1.78815 -1.6439564,0.92292 -0.7066124,-1.51417 -0.7354536,1.41322 -1.7304793,-0.99502 0.6200887,1.84584 -1.2978599,-0.0289 0.9950259,0.64891"
           style="fill:none;stroke:#8da5f3;stroke-width:0.410062;stroke-linecap:round;stroke-linejoin:round;stroke-miterlimit:4;stroke-dasharray:none;stroke-opacity:1" />
        <path
           sodipodi:nodetypes="cc"
           inkscape:connector-curvature="0"
           id="path1506"
           d="m 5.5139219,289.88493 0.4276715,-0.81135"
           style="fill:none;fill-rule:nonzero;stroke:#8da5f3;stroke-width:0.431644;stroke-linecap:round;stroke-linejoin:round;stroke-miterlimit:4;stroke-dasharray:none;stroke-opacity:1" />
        <path
           style="fill:none;fill-rule:nonzero;stroke:#8da5f3;stroke-width:0.431644;stroke-linecap:round;stroke-linejoin:round;stroke-miterlimit:4;stroke-dasharray:none;stroke-opacity:1"
           d="M 4.9527888,289.52514 4.7896392,288.87253"
           id="path1510"
           inkscape:connector-curvature="0"
           sodipodi:nodetypes="cc" />
      </g>
    </g>
  </g>
</svg>
