<?xml version="1.0" encoding="UTF-8" standalone="no"?>
<svg
   xmlns:dc="http://purl.org/dc/elements/1.1/"
   xmlns:cc="http://creativecommons.org/ns#"
   xmlns:rdf="http://www.w3.org/1999/02/22-rdf-syntax-ns#"
   xmlns:svg="http://www.w3.org/2000/svg"
   xmlns="http://www.w3.org/2000/svg"
   xmlns:sodipodi="http://sodipodi.sourceforge.net/DTD/sodipodi-0.dtd"
   xmlns:inkscape="http://www.inkscape.org/namespaces/inkscape"
   width="12mm"
   height="12mm"
   viewBox="0 0 12 12"
   version="1.1"
   id="svg3506"
   inkscape:version="0.92.5 (2060ec1f9f, 2020-04-08)"
   sodipodi:docname="GunRig2D.svg">
  <defs
     id="defs3500" />
  <sodipodi:namedview
     id="base"
     pagecolor="#ffffff"
     bordercolor="#666666"
     borderopacity="1.0"
     inkscape:pageopacity="0.0"
     inkscape:pageshadow="2"
     inkscape:zoom="4.6542069"
     inkscape:cx="71.500947"
     inkscape:cy="3.9332635"
     inkscape:document-units="mm"
     inkscape:current-layer="g886"
     showgrid="false"
     inkscape:window-width="1366"
     inkscape:window-height="710"
     inkscape:window-x="0"
     inkscape:window-y="30"
     inkscape:window-maximized="1"
     showguides="true"
     inkscape:guide-bbox="true"
     inkscape:document-rotation="0" />
  <metadata
     id="metadata3503">
    <rdf:RDF>
      <cc:Work
         rdf:about="">
        <dc:format>image/svg+xml</dc:format>
        <dc:type
           rdf:resource="http://purl.org/dc/dcmitype/StillImage" />
        <dc:title />
      </cc:Work>
    </rdf:RDF>
  </metadata>
  <g
     inkscape:label="Layer 1"
     inkscape:groupmode="layer"
     id="layer1"
     transform="translate(0,-285)">
    <g
       id="g882"
       transform="translate(0.66385881,-0.7296564)">
      <g
         id="g886"
         transform="matrix(1.0896579,0,0,1.0896579,-0.60208609,-26.325768)">
        <g
           id="g851"
           style="stroke:#000000;stroke-width:0.99962455;stroke-miterlimit:4;stroke-dasharray:none;stroke-opacity:1"
           transform="translate(0,-0.53762411)" />
        <path
           id="rect899"
           style="fill:#8da5f3;fill-opacity:1;stroke:none;stroke-width:1.83446;stroke-linecap:round;stroke-linejoin:round"
           d="m 9.5678196,287.05308 v 0.41085 H 5.5573449 c -0.1793153,0 -0.3073845,0.1103 -0.3795151,0.26429 a 1.0915771,1.0915771 0 0 1 0.832845,1.06077 1.0915771,1.0915771 0 0 1 -0.85769,1.06617 l -0.5422674,1.4979 c -0.045886,0.1268 0.1085809,0.24342 0.2434082,0.2434 h 1.6448059 c 0.1348267,0 0.1974849,-0.11653 0.2434083,-0.2434 l 0.2354867,-0.64993 h 1.1720321 l 0.4878967,-0.85877 h 1.0402461 c 0.018894,0 0.036848,-0.003 0.055091,-0.005 0.0087,10e-4 0.016501,0.005 0.025565,0.005 h 0.5213836 c 0.100138,-10e-6 0.180756,-0.0806 0.180756,-0.18076 v -0.5898 h 0.229365 v -1.0136 h -0.229365 v -0.56819 -0.43857 z m -2.2792515,2.79128 h 0.2185631 c 0.03718,0.10651 0.1061693,0.19734 0.1638325,0.28193 l 0.1479894,-0.10082 c -0.044163,-0.0648 -0.085099,-0.12618 -0.1148627,-0.18111 H 8.197028 l -0.2696935,0.47637 H 7.1160939 Z" />
        <rect
           style="fill:none;stroke:#8da5f3;stroke-width:0.518511;stroke-linecap:round;stroke-linejoin:round"
           id="rect1458"
           width="4.4268303"
           height="0.59024405"
           x="3.1158717"
           y="296.00616"
           rx="0.23978664"
           ry="0.23978664" />
        <rect
           style="fill:none;stroke:#8da5f3;stroke-width:0.516436;stroke-linecap:round;stroke-linejoin:round"
           id="rect1466"
           width="4.4268298"
           height="0.32697281"
           x="3.1158717"
           y="296.38156"
           rx="0"
           ry="0" />
        <rect
           style="fill:#8da5f3;fill-opacity:1;stroke:none;stroke-width:0.770096;stroke-linecap:round;stroke-linejoin:round"
           id="rect1468"
           width="1.4528306"
           height="3.273711"
           x="4.5969973"
           y="293.4223"
           rx="0.72641528"
           ry="0.72641528" />
        <path
           style="fill:none;stroke:#8da5f3;stroke-width:0.61028328;stroke-linecap:butt;stroke-linejoin:miter;stroke-opacity:1;stroke-miterlimit:4;stroke-dasharray:none"
           d="M 5.3951475,294.54398 0.82867606,292.24481 3.5216645,288.66646"
           id="path1470"
           sodipodi:nodetypes="ccc" />
        <circle
           style="fill:#8da5f3;fill-opacity:1;stroke:none;stroke-width:0.868317;stroke-linecap:round;stroke-linejoin:round"
           id="path1472"
           cx="0.97623706"
           cy="292.24481"
           r="1.0072916" />
        <circle
           style="fill:#8da5f3;fill-opacity:1;stroke:#8da5f3;stroke-width:0.421842;stroke-linecap:round;stroke-linejoin:round;stroke-miterlimit:4;stroke-dasharray:none;stroke-opacity:1"
           id="path1493"
           cx="3.3474481"
           cy="288.87042"
           r="0.69418424" />
      </g>
    </g>
  </g>
</svg>
