<?xml version="1.0" encoding="UTF-8" standalone="no"?>
<svg
   xmlns:dc="http://purl.org/dc/elements/1.1/"
   xmlns:cc="http://creativecommons.org/ns#"
   xmlns:rdf="http://www.w3.org/1999/02/22-rdf-syntax-ns#"
   xmlns:svg="http://www.w3.org/2000/svg"
   xmlns="http://www.w3.org/2000/svg"
   xmlns:sodipodi="http://sodipodi.sourceforge.net/DTD/sodipodi-0.dtd"
   xmlns:inkscape="http://www.inkscape.org/namespaces/inkscape"
   width="12mm"
   height="12mm"
   viewBox="0 0 12 12"
   version="1.1"
   id="svg3506"
   inkscape:version="1.0.2-2 (e86c870879, 2021-01-15)"
   sodipodi:docname="GunVisual2D.svg">
  <defs
     id="defs3500" />
  <sodipodi:namedview
     id="base"
     pagecolor="#ffffff"
     bordercolor="#666666"
     borderopacity="1.0"
     inkscape:pageopacity="0.0"
     inkscape:pageshadow="2"
     inkscape:zoom="9.3084138"
     inkscape:cx="19.003714"
     inkscape:cy="16.154919"
     inkscape:document-units="mm"
     inkscape:current-layer="g886"
     showgrid="false"
     inkscape:window-width="1440"
     inkscape:window-height="837"
     inkscape:window-x="-8"
     inkscape:window-y="32"
     inkscape:window-maximized="1"
     showguides="true"
     inkscape:guide-bbox="true"
     inkscape:document-rotation="0" />
  <metadata
     id="metadata3503">
    <rdf:RDF>
      <cc:Work
         rdf:about="">
        <dc:format>image/svg+xml</dc:format>
        <dc:type
           rdf:resource="http://purl.org/dc/dcmitype/StillImage" />
        <dc:title />
      </cc:Work>
    </rdf:RDF>
  </metadata>
  <g
     inkscape:label="Layer 1"
     inkscape:groupmode="layer"
     id="layer1"
     transform="translate(0,-285)">
    <g
       id="g882"
       transform="translate(0.66385881,-0.7296564)">
      <g
         id="g886"
         transform="matrix(1.0896579,0,0,1.0896579,-0.60208609,-26.325768)">
        <path
           id="rect905"
           style="fill:#8da5f3;fill-opacity:1;stroke:none;stroke-width:2.39216;stroke-linecap:round;stroke-linejoin:round"
           d="m 8.3834062,288.66298 h 1.2969904 l 2.5e-6,1.9089 H 8.3834087 Z"
           sodipodi:nodetypes="ccccc" />
        <rect
           style="fill:#8da5f3;fill-opacity:1;stroke:none;stroke-width:2.37426;stroke-linecap:round;stroke-linejoin:round"
           id="rect907"
           width="3.0427938"
           height="1.884569"
           x="0.98561233"
           y="290.40259"
           rx="0.35335666"
           ry="0.35335666" />
        <path
           id="rect909"
           style="fill:#8da5f3;fill-opacity:1;stroke:none;stroke-width:2.37426;stroke-linecap:round;stroke-linejoin:round"
           d="m 2.468956,291.98413 2.3887886,-2e-5 c 0.1957751,-10e-6 0.4199952,0.16924 0.3533508,0.35337 l -0.9300335,2.56924 c -0.066683,0.18423 -0.1575824,0.35335 -0.3533567,0.35335 H 1.5389169 c -0.1957753,2e-5 -0.4199873,-0.16922 -0.3533582,-0.35334 l 0.9300386,-2.56925 c 0.066675,-0.18423 0.1576075,-0.35335 0.3533587,-0.35335 z"
           sodipodi:nodetypes="sssssssss" />
        <rect
           style="fill:#8da5f3;fill-opacity:1;stroke:none;stroke-width:2.37426;stroke-linecap:round;stroke-linejoin:round"
           id="rect914"
           width="1.0133247"
           height="1.4714031"
           x="9.0000429"
           y="290.12518"
           rx="0"
           ry="0" />
        <path
           style="fill:none;stroke:#8da5f3;stroke-width:0.556596;stroke-linecap:butt;stroke-linejoin:miter;stroke-miterlimit:4;stroke-dasharray:none;stroke-opacity:1"
           d="M 4.3511507,293.68593 H 6.162847 l 0.9503984,-1.6731 H 4.3313508 Z"
           id="path2789"
           sodipodi:nodetypes="ccccc" />
        <path
           style="fill:none;stroke:#8da5f3;stroke-width:0.260649px;stroke-linecap:butt;stroke-linejoin:miter;stroke-opacity:1"
           d="m 5.7371478,292.16134 c -0.4499293,0.297 -0.2024584,0.59398 0,0.89099"
           id="path2791"
           sodipodi:nodetypes="cc" />
        <g
           id="g851"
           style="stroke:#000000;stroke-width:0.99962455;stroke-miterlimit:4;stroke-dasharray:none;stroke-opacity:1"
           transform="translate(0,-0.53762411)" />
        <rect
           style="fill:none;stroke:#8da5f3;stroke-width:0.479351;stroke-linecap:round;stroke-linejoin:round;stroke-miterlimit:4;stroke-dasharray:none;stroke-opacity:1"
           id="rect2130"
           width="10.31926"
           height="9.6523695"
           x="0.33882773"
           y="286.99442" />
        <path
           id="rect899"
           style="fill:#8da5f3;fill-opacity:1;stroke:none;stroke-width:2.66372;stroke-linecap:round;stroke-linejoin:round"
           d="m 2.5602133,289.25955 h 5.9831456 c 0.3486135,0 0.6292716,0.28062 0.6292665,0.62925 l 2.6e-6,2.19823 c 0,0.34862 -0.2806547,0.62925 -0.6292684,0.62926 l -6.400696,-1e-5 c -0.3486117,1e-5 -0.6942957,-0.28681 -0.6292636,-0.62925 l 0.4175481,-2.19823 c 0.065068,-0.34249 0.2806535,-0.62925 0.6292652,-0.62925 z"
           sodipodi:nodetypes="sssssssss" />
        <path
           id="rect903"
           style="fill:#8da5f3;fill-opacity:1;stroke:none;stroke-width:2.37426;stroke-linecap:round;stroke-linejoin:round"
           d="m 8.6606186,288.66298 h 0.7573193 c 0.1453881,10e-6 0.2624638,0.49172 0.2624587,0.63723 l 1.7e-6,3.15308 c 8e-7,0.14541 -0.1170554,0.26247 -0.2624595,0.26248 H 8.6606186 c -0.1453873,-3e-5 -0.2624614,-0.1172 -0.2624655,-0.26247 l -9e-7,-3.15309 c 3.4e-6,-0.14541 0.1170614,-0.63723 0.2624604,-0.63723 z"
           sodipodi:nodetypes="sssssssss" />
      </g>
    </g>
  </g>
</svg>
