<?xml version="1.0" encoding="UTF-8" standalone="no"?>
<!-- Created with Inkscape (http://www.inkscape.org/) -->

<svg
   xmlns:dc="http://purl.org/dc/elements/1.1/"
   xmlns:cc="http://creativecommons.org/ns#"
   xmlns:rdf="http://www.w3.org/1999/02/22-rdf-syntax-ns#"
   xmlns:svg="http://www.w3.org/2000/svg"
   xmlns="http://www.w3.org/2000/svg"
   xmlns:sodipodi="http://sodipodi.sourceforge.net/DTD/sodipodi-0.dtd"
   xmlns:inkscape="http://www.inkscape.org/namespaces/inkscape"
   width="12mm"
   height="12mm"
   viewBox="0 0 12 12"
   version="1.1"
   id="svg3506"
   inkscape:version="0.92.5 (2060ec1f9f, 2020-04-08)"
   sodipodi:docname="InputAxis2D.svg">
  <defs
     id="defs3500" />
  <sodipodi:namedview
     id="base"
     pagecolor="#ffffff"
     bordercolor="#666666"
     borderopacity="1.0"
     inkscape:pageopacity="0.0"
     inkscape:pageshadow="2"
     inkscape:zoom="1.979899"
     inkscape:cx="18.83541"
     inkscape:cy="-15.56515"
     inkscape:document-units="mm"
     inkscape:current-layer="layer1"
     showgrid="false"
     inkscape:window-width="1366"
     inkscape:window-height="710"
     inkscape:window-x="0"
     inkscape:window-y="30"
     inkscape:window-maximized="1"
     inkscape:pagecheckerboard="true" />
  <metadata
     id="metadata3503">
    <rdf:RDF>
      <cc:Work
         rdf:about="">
        <dc:format>image/svg+xml</dc:format>
        <dc:type
           rdf:resource="http://purl.org/dc/dcmitype/StillImage" />
        <dc:title />
      </cc:Work>
    </rdf:RDF>
  </metadata>
  <g
     inkscape:label="Layer 1"
     inkscape:groupmode="layer"
     id="layer1"
     transform="translate(0,-285)">
    <g
       id="g984"
       transform="matrix(0.97851746,0,0,0.97851746,0.12990369,6.2544836)">
      <g
         id="g988"
         transform="matrix(2.0556281,0,0,2.0556281,-6.3833232,-307.33838)"
         style="fill:#ffffff;fill-opacity:0.8509804">
        <path
           style="opacity:1;fill:#ffffff;fill-opacity:1;stroke:none;stroke-width:3.2903347;stroke-linecap:round;stroke-linejoin:round;stroke-miterlimit:4;stroke-dasharray:none;stroke-opacity:1;paint-order:normal"
           d="M 20.089844 0.95898438 C 15.705201 0.95874015 12.149244 4.29571 12.150391 7.6855469 C 12.152591 9.9774696 13.808441 12.871012 16.441406 13.710938 L 17.267578 16.650391 L 7.4746094 24.484375 C 6.9500211 24.903267 6.594831 25.404058 6.3769531 25.929688 L 6.2421875 25.929688 L 6.2421875 26.294922 C 6.1006841 26.811125 6.1006232 27.342868 6.2421875 27.859375 L 6.2421875 30.839844 C 5.9195113 32.017759 6.3254295 33.293457 7.4746094 34.212891 L 19.617188 43.929688 C 21.411666 45.365399 24.299272 45.365399 26.09375 43.929688 L 38.234375 34.212891 C 39.383548 33.293457 39.789472 32.017759 39.466797 30.839844 L 39.466797 27.859375 C 39.608361 27.343172 39.608308 26.811429 39.466797 26.294922 L 39.466797 25.929688 L 39.332031 25.929688 C 39.114154 25.403602 38.758963 24.904103 38.234375 24.484375 L 26.310547 14.943359 L 25.685547 21.019531 C 28.754143 21.85283 30.766666 23.870346 30.769531 26.113281 C 30.769589 29.145726 27.146294 31.603972 22.677734 31.603516 C 18.210196 31.602983 14.589787 29.145042 14.589844 26.113281 C 14.588896 24.156471 16.13215 22.365942 18.599609 21.384766 L 20.330078 27.537109 C 21.948939 28.574761 23.227016 28.354747 24.339844 27.537109 L 24.318359 13.5 C 26.621889 12.605675 28.022507 9.7900866 28.027344 7.6855469 C 28.028444 4.29571 24.474486 0.95874015 20.089844 0.95898438 z M 14.800781 4.4707031 C 15.594384 4.4715174 16.237589 5.1085153 16.236328 5.8945312 C 16.235228 6.6795702 15.59272 7.3136388 14.800781 7.3144531 C 14.008842 7.3136388 13.368288 6.6796516 13.367188 5.8945312 C 13.365941 5.1086782 14.007176 4.4715174 14.800781 4.4707031 z M 34.15625 25.515625 A 2.0834396 1.9717616 0 0 1 36.238281 27.486328 A 2.0834396 1.9717616 0 0 1 34.15625 29.458984 A 2.0834396 1.9717616 0 0 1 32.072266 27.486328 A 2.0834396 1.9717616 0 0 1 34.15625 25.515625 z M 8.9707031 27.761719 C 8.9751231 27.761643 8.979893 27.761643 8.984375 27.761719 C 9.1427862 27.757419 9.2980775 27.814689 9.421875 27.908203 L 20.783203 36.462891 C 21.548957 36.995059 20.691243 38.124261 19.972656 37.529297 L 8.609375 28.976562 C 8.1236806 28.623812 8.3122366 27.858175 8.90625 27.769531 C 8.927917 27.765831 8.9488081 27.763672 8.9707031 27.763672 L 8.9707031 27.761719 z "
           transform="matrix(0.13153743,0,0,0.13153743,3.0407093,288.08884)"
           id="rect874" />
        <path
           style="opacity:1;fill:#8da5f3;fill-opacity:1;stroke:none;stroke-width:1.00157475;stroke-linecap:round;stroke-linejoin:round;stroke-miterlimit:4;stroke-dasharray:none;stroke-opacity:1;paint-order:normal"
           d="M 20.089844 0.95898438 C 20.042054 0.95898181 19.996801 0.96406175 19.949219 0.96484375 L 21.964844 28.197266 C 22.853745 28.332507 23.63062 28.058204 24.339844 27.537109 L 24.318359 13.5 C 26.621889 12.605676 28.022507 9.7900865 28.027344 7.6855469 C 28.028444 4.29571 24.474486 0.9587409 20.089844 0.95898438 z M 26.310547 14.943359 L 25.685547 21.019531 C 28.754143 21.85283 30.766666 23.870346 30.769531 26.113281 C 30.769589 29.145726 27.146294 31.603972 22.677734 31.603516 C 22.436798 31.603487 22.200418 31.592155 21.964844 31.578125 L 21.964844 44.935547 C 23.411706 45.165456 24.967568 44.830713 26.09375 43.929688 L 38.234375 34.212891 C 39.383548 33.293457 39.789472 32.017759 39.466797 30.839844 L 39.466797 27.859375 C 39.608361 27.343172 39.608308 26.811429 39.466797 26.294922 L 39.466797 25.929688 L 39.332031 25.929688 C 39.114154 25.403602 38.758963 24.904103 38.234375 24.484375 L 26.310547 14.943359 z M 34.15625 25.515625 A 2.0834396 1.9717616 0 0 1 36.238281 27.486328 A 2.0834396 1.9717616 0 0 1 34.15625 29.458984 A 2.0834396 1.9717616 0 0 1 32.072266 27.486328 A 2.0834396 1.9717616 0 0 1 34.15625 25.515625 z "
           transform="matrix(0.13153743,0,0,0.13153743,3.0407093,288.08884)"
           id="rect991" />
      </g>
    </g>
    <g
       id="g912"
       transform="matrix(1.0697134,0,0,1.0697134,-0.37598302,-20.296553)">
      <g
         id="g928"
         transform="translate(0.05712841,-0.82552129)">
        <g
           id="g980"
           transform="rotate(90,5.9472119,291.9682)" />
      </g>
    </g>
    <g
       transform="rotate(90,6.8440076,291.1488)"
       id="g918" />
  </g>
</svg>
