<?xml version="1.0" encoding="UTF-8" standalone="no"?>
<svg
   xmlns:dc="http://purl.org/dc/elements/1.1/"
   xmlns:cc="http://creativecommons.org/ns#"
   xmlns:rdf="http://www.w3.org/1999/02/22-rdf-syntax-ns#"
   xmlns:svg="http://www.w3.org/2000/svg"
   xmlns="http://www.w3.org/2000/svg"
   xmlns:sodipodi="http://sodipodi.sourceforge.net/DTD/sodipodi-0.dtd"
   xmlns:inkscape="http://www.inkscape.org/namespaces/inkscape"
   width="12mm"
   height="12mm"
   viewBox="0 0 12 12"
   version="1.1"
   id="svg3506"
   inkscape:version="0.92.5 (2060ec1f9f, 2020-04-08)"
   sodipodi:docname="StatusContainer2D.svg">
  <defs
     id="defs3500" />
  <sodipodi:namedview
     id="base"
     pagecolor="#ffffff"
     bordercolor="#666666"
     borderopacity="1.0"
     inkscape:pageopacity="0.0"
     inkscape:pageshadow="2"
     inkscape:zoom="2.8"
     inkscape:cx="-1.395392"
     inkscape:cy="19.144649"
     inkscape:document-units="mm"
     inkscape:current-layer="layer1"
     showgrid="false"
     inkscape:window-width="1366"
     inkscape:window-height="710"
     inkscape:window-x="0"
     inkscape:window-y="30"
     inkscape:window-maximized="1"
     inkscape:document-rotation="0" />
  <metadata
     id="metadata3503">
    <rdf:RDF>
      <cc:Work
         rdf:about="">
        <dc:format>image/svg+xml</dc:format>
        <dc:type
           rdf:resource="http://purl.org/dc/dcmitype/StillImage" />
        <dc:title />
      </cc:Work>
    </rdf:RDF>
  </metadata>
  <g
     inkscape:label="Layer 1"
     inkscape:groupmode="layer"
     id="layer1"
     transform="translate(0,-285)">
    <rect
       style="fill:none;stroke:#8da5f3;stroke-width:0.630908;stroke-linecap:round;stroke-linejoin:round"
       id="rect853"
       width="10.735543"
       height="10.578656"
       x="0.59716505"
       y="285.64017"
       rx="0.50563002"
       ry="0.50563002" />
    <path
       style="fill:#8da5f3;fill-opacity:1;stroke:#8da5f3;stroke-width:0.759;stroke-linecap:butt;stroke-linejoin:miter;stroke-miterlimit:4;stroke-dasharray:none;stroke-opacity:1"
       d="m 6.8337176,290.76364 c 0.9209153,-0.22288 0.9535638,-1.18587 0.9343481,-2.19212 -0.2744513,0.049 -0.6009733,0.002 -0.6947709,0.38332 -0.0043,-1.53233 -0.9005322,-1.75001 -1.4494379,-2.47962 -0.7112358,0.51778 -0.5229865,1.58925 -1.1619436,2.13225 l -0.4791512,-0.62291 c -0.2927262,1.06769 -1.1293812,2.29855 0.6947711,2.73118 0.2159067,-1.2308 0.6611616,-1.6589 0.9942408,-2.47962 0.124748,0.69387 -0.259765,1.53301 0.6588355,2.00044 0.1397498,-0.0304 0.2794997,-0.0201 0.4192582,-0.2636 -0.05143,0.2953 -0.024381,0.55926 0.083844,0.79068 z"
       id="path855"
       sodipodi:nodetypes="ccccccccccc" />
    <path
       style="fill:none;stroke:#8da5f3;stroke-width:0.599;stroke-linecap:round;stroke-linejoin:miter;stroke-miterlimit:4;stroke-dasharray:none;stroke-opacity:1"
       d="m 3.418704,291.59409 v 3.65137"
       id="path857" />
    <path
       style="fill:none;stroke:#8da5f3;stroke-width:0.599;stroke-linecap:round;stroke-linejoin:miter;stroke-miterlimit:4;stroke-dasharray:none;stroke-opacity:1"
       d="m 2.4338864,291.97286 0.9440855,0.62239 1.1040025,-0.56009"
       id="path859"
       sodipodi:nodetypes="ccc" />
    <path
       style="fill:none;stroke:#8da5f3;stroke-width:0.599;stroke-linecap:round;stroke-linejoin:miter;stroke-miterlimit:4;stroke-dasharray:none;stroke-opacity:1"
       d="M 5.2689549,293.3952 H 1.617584"
       id="path861" />
    <path
       style="fill:none;stroke:#8da5f3;stroke-width:0.599;stroke-linecap:round;stroke-linejoin:miter;stroke-miterlimit:4;stroke-dasharray:none;stroke-opacity:1"
       d="m 4.8901872,292.4104 -0.6223907,0.94409 0.5600973,1.10397"
       id="path863"
       sodipodi:nodetypes="ccc" />
    <path
       style="fill:none;stroke:#8da5f3;stroke-width:0.599;stroke-linecap:round;stroke-linejoin:miter;stroke-miterlimit:4;stroke-dasharray:none;stroke-opacity:1"
       d="m 1.8767351,292.4104 0.6223907,0.94409 -0.5600973,1.10397"
       id="path865"
       sodipodi:nodetypes="ccc" />
    <path
       style="fill:none;stroke:#8da5f3;stroke-width:0.599;stroke-linecap:round;stroke-linejoin:miter;stroke-miterlimit:4;stroke-dasharray:none;stroke-opacity:1"
       d="m 2.3930273,295.016 0.9971167,-0.6224 1.0509496,0.5601"
       id="path867"
       sodipodi:nodetypes="ccc" />
    <path
       style="fill:#8da5f3;fill-opacity:1;stroke:none;stroke-width:0.546399;stroke-linecap:round;stroke-linejoin:miter;stroke-miterlimit:4;stroke-dasharray:none;stroke-opacity:1"
       d="m 8.6935565,290.95327 c -1.0522954,0 -1.9054618,0.85317 -1.9054706,1.90547 -1.81e-5,0.23738 0.044403,0.47263 0.1308145,0.69371 -0.0858,0.14994 -0.1302104,0.3095 -0.1308145,0.47048 1.975e-4,0.34246 0.1980193,0.67095 0.5505898,0.91445 l 0.229082,0.50198 c 0.032338,0.0709 0.069121,0.1427 0.1548078,0.1427 0.8151989,0.16202 1.5103201,0.0876 1.941982,0 0.085684,0 0.1220522,-0.0718 0.1543906,-0.1427 l 0.2297079,-0.50344 c 0.351965,-0.24319 0.549507,-0.57105 0.550172,-0.91299 -6.5e-5,-0.16233 -0.04453,-0.3233 -0.131231,-0.47444 0.08612,-0.21982 0.130579,-0.45366 0.131231,-0.68975 -9e-6,-1.0523 -0.8529658,-1.90547 -1.9052615,-1.90547 z m -0.9558266,1.98223 c 0.2585382,0.0109 0.5090534,0.17772 0.6532586,0.43515 0.2177782,0.38873 0.1301904,0.86095 -0.1956828,1.05471 -0.3258003,0.19372 -0.7664343,0.0358 -0.9843084,-0.35278 -0.2179252,-0.38872 -0.1304002,-0.86104 0.1954862,-1.05491 0.09887,-0.0588 0.2127746,-0.0871 0.3312464,-0.0822 z m 1.9114448,0 c 0.1185419,-0.005 0.2325171,0.0233 0.3314425,0.0822 0.3258038,0.19395 0.4132368,0.66624 0.1952898,1.05491 -0.2178738,0.38855 -0.6584904,0.54647 -0.9843083,0.35278 -0.3258554,-0.1938 -0.4134611,-0.66598 -0.1956829,-1.05471 0.1442053,-0.25743 0.3947205,-0.4243 0.6532589,-0.43515 z m -0.9444722,1.32576 c 0.1127702,-0.007 0.2596325,0.14587 0.3356159,0.35074 0.079705,0.21466 0.052474,0.40648 -0.060808,0.42833 -0.080904,0.0155 -0.1876151,-0.0606 -0.2724568,-0.19418 -0.084723,0.13337 -0.1912548,0.20939 -0.2721209,0.19418 -0.1132817,-0.0218 -0.1405127,-0.21367 -0.060808,-0.42833 0.074739,-0.20133 0.2182194,-0.35357 0.3305778,-0.35074 z"
       id="path843"
       inkscape:connector-curvature="0"
       sodipodi:nodetypes="ccccccccccccccccscccccccccccccccc" />
  </g>
</svg>
