<?xml version="1.0" encoding="UTF-8" standalone="no"?>
<!-- Created with Inkscape (http://www.inkscape.org/) -->

<svg
   xmlns:dc="http://purl.org/dc/elements/1.1/"
   xmlns:cc="http://creativecommons.org/ns#"
   xmlns:rdf="http://www.w3.org/1999/02/22-rdf-syntax-ns#"
   xmlns:svg="http://www.w3.org/2000/svg"
   xmlns="http://www.w3.org/2000/svg"
   xmlns:sodipodi="http://sodipodi.sourceforge.net/DTD/sodipodi-0.dtd"
   xmlns:inkscape="http://www.inkscape.org/namespaces/inkscape"
   width="12mm"
   height="12mm"
   viewBox="0 0 12 12"
   version="1.1"
   id="svg3506"
   inkscape:version="0.92.5 (2060ec1f9f, 2020-04-08)"
   sodipodi:docname="StateContext.svg">
  <defs
     id="defs3500" />
  <sodipodi:namedview
     id="base"
     pagecolor="#ffffff"
     bordercolor="#666666"
     borderopacity="1.0"
     inkscape:pageopacity="0.0"
     inkscape:pageshadow="2"
     inkscape:zoom="3.959798"
     inkscape:cx="-1.0483143"
     inkscape:cy="15.013367"
     inkscape:document-units="mm"
     inkscape:current-layer="layer1"
     showgrid="false"
     inkscape:window-width="1366"
     inkscape:window-height="710"
     inkscape:window-x="0"
     inkscape:window-y="30"
     inkscape:window-maximized="1"
     inkscape:pagecheckerboard="true" />
  <metadata
     id="metadata3503">
    <rdf:RDF>
      <cc:Work
         rdf:about="">
        <dc:format>image/svg+xml</dc:format>
        <dc:type
           rdf:resource="http://purl.org/dc/dcmitype/StillImage" />
        <dc:title />
      </cc:Work>
    </rdf:RDF>
  </metadata>
  <g
     inkscape:label="Layer 1"
     inkscape:groupmode="layer"
     id="layer1"
     transform="translate(0,-285)">
    <path
       style="opacity:1;fill:#ffffff;fill-opacity:1;stroke:none;stroke-width:1.84732127;stroke-linecap:round;stroke-linejoin:round;stroke-miterlimit:4;stroke-dasharray:none;stroke-opacity:1;paint-order:normal"
       d="m 3.1652661,286.20192 c -0.4997798,0 -0.9019005,0.40212 -0.9019005,0.9019 v 0.2442 0.0121 H 1.4464144 c -0.50653383,0 -0.91457084,0.40746 -0.91457084,0.91399 v 3.43799 c 0,0.50653 0.40803701,0.91429 0.91457084,0.91429 h 0.5626798 v -0.50135 c 0,-0.51188 0.4121827,-0.92379 0.9240737,-0.92379 0.511891,0 0.9240735,0.41191 0.9240735,0.92379 v 0.50135 H 4.884118 c 0.5065335,0 0.9145708,-0.40776 0.9145708,-0.91429 v -0.91399 H 5.2388885 4.9949837 c -0.4997852,0 -0.9021884,-0.40241 -0.9021884,-0.90219 0,-0.49979 0.4024032,-0.90219 0.9021884,-0.90219 h 0.2439048 0.5598003 v -0.71962 c 0,-0.50653 -0.4080373,-0.91399 -0.9145708,-0.91399 H 4.0674544 v -0.0121 -0.2442 c 0,-0.49978 -0.4024086,-0.9019 -0.9021883,-0.9019 z"
       id="rect4051"
       inkscape:connector-curvature="0" />
    <g
       id="g861"
       transform="matrix(0.55724263,0,0,0.55724263,7.2103603,127.80393)"
       style="fill:#ffffff;fill-opacity:1;stroke:none">
      <path
         id="path864"
         d="m 0.91518504,289.30147 v 1.65139 c -0.16348313,0.057 -0.32205513,0.12332 -0.47620103,0.19826 l -1.16861784,-1.16861 -2.06543377,2.06587 1.1721194,1.17212 c -0.073809,0.15313 -0.1395054,0.31042 -0.195645,0.4727 h -1.6579494 v 2.9211 h 1.6649523 c 0.056208,0.16002 0.121351,0.31554 0.1947697,0.46657 l -1.178247,1.17825 2.06543377,2.06587 1.18174844,-1.18174 c 0.14996,0.0722 0.3043236,0.13635 0.46307043,0.1917 v 1.67109 H 3.8367296 v -1.67109 c 0.1587443,-0.0553 0.3126753,-0.11986 0.4626326,-0.19214 l 1.1821863,1.18218 2.0654337,-2.06587 -1.1782472,-1.17825 c 0.073459,-0.15109 0.1385371,-0.30648 0.1947697,-0.46657 h 1.6649524 v -2.9211 H 6.5705078 c -0.056132,-0.16227 -0.1218452,-0.31958 -0.1956451,-0.4727 l 1.1721195,-1.17212 -2.0654337,-2.06587 -1.168618,1.16861 c -0.1541336,-0.075 -0.312732,-0.14128 -0.4762009,-0.19826 v -1.65139 z m 1.46099106,4.62195 c 0.6739846,5e-5 1.2202213,0.54628 1.2202646,1.22027 -4.33e-5,0.67398 -0.54628,1.22021 -1.2202646,1.22026 -0.6739847,-5e-5 -1.2202214,-0.54628 -1.2202648,-1.22026 4.34e-5,-0.67399 0.5462801,-1.22022 1.2202648,-1.22027 z"
         style="opacity:1;fill:#ffffff;fill-opacity:1;stroke:none;stroke-width:0.84697145;stroke-linecap:round;stroke-linejoin:round;stroke-miterlimit:4;stroke-dasharray:none;stroke-opacity:1"
         inkscape:connector-curvature="0" />
    </g>
    <g
       id="g900"
       transform="matrix(1.0719419,0,0,1.0719419,-0.44343039,-20.928239)">
      <path
         sodipodi:nodetypes="cccccccc"
         inkscape:connector-curvature="0"
         id="rect875"
         d="m 1.1715491,293.1289 v 1.78645 c -9.95e-5,0.27631 0.2239181,0.50033 0.5002279,0.50023 h 2.4387631 v -0.99994 h -1.939052 v -1.28674 z"
         style="color:#000000;font-style:normal;font-variant:normal;font-weight:normal;font-stretch:normal;font-size:medium;line-height:normal;font-family:sans-serif;font-variant-ligatures:normal;font-variant-position:normal;font-variant-caps:normal;font-variant-numeric:normal;font-variant-alternates:normal;font-feature-settings:normal;text-indent:0;text-align:start;text-decoration:none;text-decoration-line:none;text-decoration-style:solid;text-decoration-color:#000000;letter-spacing:normal;word-spacing:normal;text-transform:none;writing-mode:lr-tb;direction:ltr;text-orientation:mixed;dominant-baseline:auto;baseline-shift:baseline;text-anchor:start;white-space:normal;shape-padding:0;clip-rule:nonzero;display:inline;overflow:visible;visibility:visible;opacity:1;isolation:auto;mix-blend-mode:normal;color-interpolation:sRGB;color-interpolation-filters:linearRGB;solid-color:#000000;solid-opacity:1;vector-effect:none;fill:#ffffff;fill-opacity:1;fill-rule:nonzero;stroke:none;stroke-width:1;stroke-linecap:round;stroke-linejoin:round;stroke-miterlimit:4;stroke-dasharray:none;stroke-dashoffset:0;stroke-opacity:1;color-rendering:auto;image-rendering:auto;shape-rendering:auto;text-rendering:auto;enable-background:accumulate" />
      <path
         inkscape:transform-center-x="-0.35915043"
         d="m 5.8128572,294.8916 -2.1549032,1.24414 0,-2.48827 z"
         inkscape:randomized="0"
         inkscape:rounded="0"
         inkscape:flatsided="true"
         sodipodi:arg2="1.0471976"
         sodipodi:arg1="0"
         sodipodi:r2="0.718301"
         sodipodi:r1="1.4366021"
         sodipodi:cy="294.8916"
         sodipodi:cx="4.376255"
         sodipodi:sides="3"
         id="path892"
         style="opacity:1;fill:#ffffff;fill-opacity:1;stroke:none;stroke-width:1.58796799;stroke-linecap:round;stroke-linejoin:round;stroke-miterlimit:4;stroke-dasharray:none;stroke-opacity:1"
         sodipodi:type="star" />
    </g>
    <g
       id="g906"
       transform="matrix(-1.0719419,0,0,-1.0719419,11.734845,602.73736)">
      <path
         style="color:#000000;font-style:normal;font-variant:normal;font-weight:normal;font-stretch:normal;font-size:medium;line-height:normal;font-family:sans-serif;font-variant-ligatures:normal;font-variant-position:normal;font-variant-caps:normal;font-variant-numeric:normal;font-variant-alternates:normal;font-feature-settings:normal;text-indent:0;text-align:start;text-decoration:none;text-decoration-line:none;text-decoration-style:solid;text-decoration-color:#000000;letter-spacing:normal;word-spacing:normal;text-transform:none;writing-mode:lr-tb;direction:ltr;text-orientation:mixed;dominant-baseline:auto;baseline-shift:baseline;text-anchor:start;white-space:normal;shape-padding:0;clip-rule:nonzero;display:inline;overflow:visible;visibility:visible;opacity:1;isolation:auto;mix-blend-mode:normal;color-interpolation:sRGB;color-interpolation-filters:linearRGB;solid-color:#000000;solid-opacity:1;vector-effect:none;fill:#ffffff;fill-opacity:1;fill-rule:nonzero;stroke:none;stroke-width:1;stroke-linecap:round;stroke-linejoin:round;stroke-miterlimit:4;stroke-dasharray:none;stroke-dashoffset:0;stroke-opacity:1;color-rendering:auto;image-rendering:auto;shape-rendering:auto;text-rendering:auto;enable-background:accumulate"
         d="m 1.1715491,293.1289 v 1.78645 c -9.95e-5,0.27631 0.2239181,0.50033 0.5002279,0.50023 h 2.4387631 v -0.99994 h -1.939052 v -1.28674 z"
         id="path902"
         inkscape:connector-curvature="0"
         sodipodi:nodetypes="cccccccc" />
      <path
         sodipodi:type="star"
         style="opacity:1;fill:#ffffff;fill-opacity:1;stroke:none;stroke-width:1.58796799;stroke-linecap:round;stroke-linejoin:round;stroke-miterlimit:4;stroke-dasharray:none;stroke-opacity:1"
         id="path904"
         sodipodi:sides="3"
         sodipodi:cx="4.376255"
         sodipodi:cy="294.8916"
         sodipodi:r1="1.4366021"
         sodipodi:r2="0.718301"
         sodipodi:arg1="0"
         sodipodi:arg2="1.0471976"
         inkscape:flatsided="true"
         inkscape:rounded="0"
         inkscape:randomized="0"
         d="m 5.8128572,294.8916 -2.1549032,1.24414 0,-2.48827 z"
         inkscape:transform-center-x="-0.35915043" />
    </g>
  </g>
</svg>
