<?xml version="1.0" encoding="UTF-8" standalone="no"?>
<svg
   xmlns:dc="http://purl.org/dc/elements/1.1/"
   xmlns:cc="http://creativecommons.org/ns#"
   xmlns:rdf="http://www.w3.org/1999/02/22-rdf-syntax-ns#"
   xmlns:svg="http://www.w3.org/2000/svg"
   xmlns="http://www.w3.org/2000/svg"
   xmlns:sodipodi="http://sodipodi.sourceforge.net/DTD/sodipodi-0.dtd"
   xmlns:inkscape="http://www.inkscape.org/namespaces/inkscape"
   width="12mm"
   height="12mm"
   viewBox="0 0 12 12"
   version="1.1"
   id="svg3506"
   inkscape:version="0.92.5 (2060ec1f9f, 2020-04-08)"
   sodipodi:docname="ScreenContainer.svg">
  <defs
     id="defs3500" />
  <sodipodi:namedview
     id="base"
     pagecolor="#ffffff"
     bordercolor="#666666"
     borderopacity="1.0"
     inkscape:pageopacity="0.0"
     inkscape:pageshadow="2"
     inkscape:zoom="11.2"
     inkscape:cx="23.494347"
     inkscape:cy="15.27247"
     inkscape:document-units="mm"
     inkscape:current-layer="layer1"
     showgrid="false"
     inkscape:window-width="1366"
     inkscape:window-height="710"
     inkscape:window-x="0"
     inkscape:window-y="30"
     inkscape:window-maximized="1"
     inkscape:document-rotation="0"
     showguides="false" />
  <metadata
     id="metadata3503">
    <rdf:RDF>
      <cc:Work
         rdf:about="">
        <dc:format>image/svg+xml</dc:format>
        <dc:type
           rdf:resource="http://purl.org/dc/dcmitype/StillImage" />
        <dc:title />
      </cc:Work>
    </rdf:RDF>
  </metadata>
  <g
     inkscape:label="Layer 1"
     inkscape:groupmode="layer"
     id="layer1"
     transform="translate(0,-285)">
    <path
       id="rect845"
       style="fill:#a5efac;stroke-width:10.1027;stroke-linecap:round;stroke-linejoin:round;fill-opacity:1"
       d="M 4.109375 4.9960938 C 2.3216774 4.9960938 0.8828125 6.4349587 0.8828125 8.2226562 L 0.8828125 39.630859 C 0.8828125 41.418557 2.3216774 42.857422 4.109375 42.857422 L 40.955078 42.857422 C 42.742776 42.857422 44.181641 41.418557 44.181641 39.630859 L 44.181641 8.2226562 C 44.181641 6.4349587 42.742776 4.9960938 40.955078 4.9960938 L 4.109375 4.9960938 z M 7.1660156 8.1445312 L 12.847656 8.1445312 C 13.634628 8.1445313 14.267578 8.7774812 14.267578 9.5644531 C 14.267578 10.351425 13.634628 10.986328 12.847656 10.986328 L 7.1660156 10.986328 C 6.3790437 10.986328 5.7460938 10.351425 5.7460938 9.5644531 C 5.7460937 8.7774812 6.3790437 8.1445312 7.1660156 8.1445312 z M 16.267578 8.1445312 L 17.951172 8.1445312 C 18.738144 8.1445313 19.371094 8.7774799 19.371094 9.5644531 C 19.371094 10.351426 18.738144 10.984375 17.951172 10.984375 L 16.267578 10.984375 C 15.480606 10.984375 14.847656 10.351426 14.847656 9.5644531 C 14.847656 8.7774799 15.480606 8.1445312 16.267578 8.1445312 z M 21.445312 8.1445312 L 21.789062 8.1445312 C 22.576034 8.1445313 23.208984 8.7774799 23.208984 9.5644531 C 23.208984 10.351426 22.576034 10.984375 21.789062 10.984375 L 21.445312 10.984375 C 20.658341 10.984375 20.025391 10.351426 20.025391 9.5644531 C 20.025391 8.7774799 20.658341 8.1445312 21.445312 8.1445312 z M 5.6796875 13.191406 L 39.382812 13.191406 L 39.382812 38.662109 L 5.6796875 38.662109 L 5.6796875 13.191406 z "
       transform="matrix(0.26458333,0,0,0.26458333,0,285)" />
    <g
       id="g828"
       transform="translate(0.2816098,0.1298321)">
      <rect
         ry="0"
         rx="0"
         y="289.45511"
         x="2.6543672"
         height="1.7456783"
         width="2.4965079"
         id="rect860"
         style="fill:#a5efac;fill-opacity:1;stroke-width:1.61256397;stroke-linecap:round;stroke-linejoin:round" />
      <rect
         style="fill:#a5efac;fill-opacity:1;stroke-width:1.61256397;stroke-linecap:round;stroke-linejoin:round"
         id="rect818"
         width="2.4965079"
         height="1.7456783"
         x="6.2092085"
         y="289.45511"
         rx="0"
         ry="0" />
      <rect
         style="fill:#a5efac;fill-opacity:1;stroke-width:1.61256397;stroke-linecap:round;stroke-linejoin:round"
         id="rect820"
         width="2.4965079"
         height="1.7456783"
         x="2.6543672"
         y="292.25912"
         rx="0"
         ry="0" />
      <rect
         ry="0"
         rx="0"
         y="292.25912"
         x="6.2092085"
         height="1.7456783"
         width="2.4965079"
         id="rect822"
         style="fill:#a5efac;fill-opacity:1;stroke-width:1.61256397;stroke-linecap:round;stroke-linejoin:round" />
    </g>
  </g>
</svg>
