<?xml version="1.0" encoding="UTF-8" standalone="no"?>
<svg
   xmlns:dc="http://purl.org/dc/elements/1.1/"
   xmlns:cc="http://creativecommons.org/ns#"
   xmlns:rdf="http://www.w3.org/1999/02/22-rdf-syntax-ns#"
   xmlns:svg="http://www.w3.org/2000/svg"
   xmlns="http://www.w3.org/2000/svg"
   xmlns:sodipodi="http://sodipodi.sourceforge.net/DTD/sodipodi-0.dtd"
   xmlns:inkscape="http://www.inkscape.org/namespaces/inkscape"
   width="12mm"
   height="12mm"
   viewBox="0 0 12 12"
   version="1.1"
   id="svg3506"
   inkscape:version="1.0.2-2 (e86c870879, 2021-01-15)"
   sodipodi:docname="Screen.svg">
  <defs
     id="defs3500" />
  <sodipodi:namedview
     id="base"
     pagecolor="#ffffff"
     bordercolor="#666666"
     borderopacity="1.0"
     inkscape:pageopacity="0.0"
     inkscape:pageshadow="2"
     inkscape:zoom="11.2"
     inkscape:cx="14.903174"
     inkscape:cy="17.741579"
     inkscape:document-units="mm"
     inkscape:current-layer="layer1"
     showgrid="false"
     inkscape:window-width="1440"
     inkscape:window-height="837"
     inkscape:window-x="-8"
     inkscape:window-y="32"
     inkscape:window-maximized="1"
     inkscape:document-rotation="0" />
  <metadata
     id="metadata3503">
    <rdf:RDF>
      <cc:Work
         rdf:about="">
        <dc:format>image/svg+xml</dc:format>
        <dc:type
           rdf:resource="http://purl.org/dc/dcmitype/StillImage" />
        <dc:title />
      </cc:Work>
    </rdf:RDF>
  </metadata>
  <g
     inkscape:label="Layer 1"
     inkscape:groupmode="layer"
     id="layer1"
     transform="translate(0,-285)">
    <path
       id="rect845"
       style="fill:#a5efac;fill-opacity:1;stroke-width:2.67301;stroke-linecap:round;stroke-linejoin:round"
       d="m 1.1496161,286.15699 c -0.472995,0 -0.85369467,0.3807 -0.85369467,0.8537 v 8.31008 c 0,0.473 0.38069967,0.8537 0.85369467,0.8537 h 9.7487589 c 0.472995,0 0.853695,-0.3807 0.853695,-0.8537 v -8.31008 c 0,-0.473 -0.3807,-0.8537 -0.853695,-0.8537 z m 0.8087362,0.83303 h 1.5032673 c 0.2082197,0 0.3756877,0.16747 0.3756877,0.37568 0,0.20822 -0.167468,0.37621 -0.3756877,0.37621 H 1.9583523 c -0.2082197,0 -0.3756877,-0.16799 -0.3756877,-0.37621 0,-0.20821 0.167468,-0.37568 0.3756877,-0.37568 z m 2.4081217,0 h 0.4454509 c 0.2082196,0 0.3756877,0.16746 0.3756877,0.37568 0,0.20822 -0.1674681,0.37569 -0.3756877,0.37569 H 4.366474 c -0.2082197,0 -0.3756877,-0.16747 -0.3756877,-0.37569 0,-0.20822 0.167468,-0.37568 0.3756877,-0.37568 z m 1.3699421,0 h 0.09095 c 0.2082197,0 0.3756877,0.16746 0.3756877,0.37568 0,0.20822 -0.167468,0.37569 -0.3756877,0.37569 h -0.09095 c -0.2082194,0 -0.3756875,-0.16747 -0.3756875,-0.37569 0,-0.20822 0.1674681,-0.37568 0.3756875,-0.37568 z m -4.1713215,1.33532 h 8.9172844 v 6.73912 H 1.5650946 Z" />
  </g>
</svg>
